<svg width="326" height="326" viewBox="0 0 326 326" fill="none" xmlns="http://www.w3.org/2000/svg">
<path d="M87.5375 243.574C80.984 243.579 74.5027 242.206 68.5141 239.544C62.5256 236.882 57.1635 232.991 52.7757 228.123C48.388 223.255 45.0726 217.519 43.0447 211.287C41.0168 205.055 40.3216 198.467 41.0043 191.949C24.3066 185.905 13.1117 169.025 13.1117 149.823C13.1117 137.396 17.9235 125.484 26.3278 117.08C21.6514 109.805 19.185 101.33 19.2275 92.6818C19.2275 69.425 37.9855 55.6091 56.6327 53.8878C57.2641 48.5537 58.9615 43.401 61.6239 38.736C64.2862 34.0709 67.8593 29.9887 72.1308 26.732C81.1823 19.6946 92.4539 16.1297 103.906 16.6822C115.358 17.2347 126.234 21.8682 134.566 29.7443C142.403 17.2259 155.326 9.78003 169.233 9.78003C180.787 9.78003 191.532 14.7939 199.525 23.9089C206.381 20.061 214.111 18.0404 221.973 18.0409C242.518 18.0409 261.165 32.098 268.448 53.0533C278.942 53.2969 288.924 57.6379 296.258 65.1476C303.593 72.6572 307.696 82.7391 307.692 93.236C307.692 105.161 300.989 118.801 292.044 125.23C300.676 134.214 304.836 145.533 303.78 157.178C301.354 183.564 281.853 197.347 268.448 197.347C267.027 207.564 261.1 217.116 251.724 224.268C242.707 231.154 231.297 235.105 220.428 235.105C207.604 235.022 195.284 230.102 185.931 221.328C177.709 234.498 164.148 242.342 149.543 242.342C138.772 242.342 128.424 238.039 120.359 230.228C111.609 238.834 99.8107 243.631 87.5375 243.574ZM101.712 17.5127C82.152 17.5127 59.984 30.4158 57.4608 54.3312L57.4216 54.6898L57.0696 54.7224C38.6962 56.2611 20.1012 69.7966 20.1012 92.6818C20.0635 101.285 22.5578 109.708 27.2732 116.904L27.4688 117.204L27.2145 117.451C18.8167 125.699 14.005 137.5 14.005 149.823C14.005 168.783 25.089 185.429 41.6432 191.245L41.9627 191.362V191.701C41.7751 193.39 41.6794 195.088 41.6758 196.787C41.6929 205.85 44.3914 214.705 49.4314 222.237C54.4714 229.769 61.6276 235.642 69.9987 239.115C78.3698 242.588 87.5814 243.506 96.4734 241.754C105.365 240.002 113.54 235.658 119.968 229.269L120.274 228.969L120.581 229.269C128.522 237.093 138.778 241.436 149.458 241.436C163.919 241.436 177.351 233.566 185.383 220.383L185.664 219.926L186.048 220.291C195.6 229.263 207.792 234.198 220.376 234.198C240.868 234.198 264.712 219.202 267.6 196.819L267.646 196.428H268.037C281.077 196.735 300.5 183.186 302.9 157.054C303.962 145.52 299.757 134.286 291.059 125.432L290.701 125.06L291.125 124.767C299.92 118.729 306.825 104.861 306.825 93.236C306.781 82.9309 302.708 73.0517 295.478 65.709C288.247 58.3663 278.432 54.1425 268.128 53.94H267.829L267.731 53.6531C260.631 32.8543 242.244 18.908 221.973 18.908C214.142 18.902 206.444 20.9404 199.642 24.8217L199.329 24.9912L199.101 24.7239C191.277 15.635 180.643 10.6276 169.233 10.6276C155.463 10.6276 142.677 18.1191 135.029 30.6701L134.749 31.1265L134.364 30.7614C125.57 22.3401 113.888 17.6002 101.712 17.5127Z" fill="#E0E0E0"/>
<path d="M137.755 315.196L31.7785 253.967L199.512 157.099L305.488 218.329L137.755 315.196Z" fill="#E0E0E0"/>
<path d="M210.466 305.573C209.308 305.59 208.165 305.309 207.147 304.758L204.65 303.317C204.126 303.11 203.677 302.751 203.361 302.286C203.044 301.821 202.875 301.271 202.875 300.709C202.875 300.146 203.044 299.597 203.361 299.132C203.677 298.666 204.126 298.307 204.65 298.101L237.543 279.056C234.609 275.796 233.312 272.138 233.768 268.389C234.355 263.61 237.85 259.144 243.62 255.812C249.859 252.207 258.14 250.224 266.935 250.224C275.731 250.224 284.011 252.18 290.257 255.812C296.667 259.509 300.194 264.49 300.194 269.83C300.194 275.17 296.667 280.145 290.257 283.842C284.011 287.447 275.731 289.429 266.942 289.429C258.466 289.429 250.459 287.584 244.304 284.213L214.182 304.517C213.071 305.219 211.78 305.586 210.466 305.573Z" fill="#E0E0E0"/>
<path d="M102.071 308.213L94.4031 299.503L49.728 273.618L48.1046 272.679L45.4509 271.147L45.2684 271.043H45.3336L42.7842 269.582L32.3522 263.578C30.3376 262.202 27.3188 264.992 26.1452 267.809C25.9643 268.229 25.8267 268.666 25.7344 269.113C25.5062 270.28 25.7344 271.336 26.569 271.93L35.045 276.826L37.3531 278.13L39.2569 279.226L39.4395 279.323L41.6432 280.595C41.6669 280.624 41.6956 280.648 41.728 280.666L43.5797 281.716L89.2197 308.168L100.408 310.378L103.453 310.984C103.521 310.997 103.592 310.994 103.658 310.975C103.725 310.956 103.787 310.921 103.838 310.874C103.918 310.792 103.963 310.682 103.963 310.567C103.963 310.453 103.918 310.342 103.838 310.261L102.071 308.213Z" fill="#E0E0E0"/>
<path d="M295.213 261.406C295.213 257.149 292.402 252.885 286.769 249.638C275.509 243.118 257.26 243.118 246 249.638C240.373 252.898 237.556 257.149 237.556 261.406V269.23C237.556 273.494 240.373 277.752 246 280.999C257.26 287.519 275.509 287.519 286.769 280.999C292.402 277.739 295.213 273.494 295.213 269.23V261.406ZM247.395 252.05C252.422 249.149 259.163 247.551 266.388 247.551C273.612 247.551 280.347 249.149 285.374 252.05C289.938 254.658 292.429 257.996 292.429 261.406C292.429 264.816 289.925 268.135 285.374 270.763C280.347 273.664 273.605 275.261 266.388 275.261C259.17 275.261 252.422 273.664 247.395 270.763C242.831 268.155 240.347 264.816 240.347 261.406C240.347 257.996 242.85 254.678 247.395 252.05Z" fill="#885048"/>
<path opacity="0.3" d="M246 273.188C257.26 279.708 275.509 279.708 286.769 273.188C298.029 266.668 298.029 256.151 286.769 249.651C275.509 243.15 257.26 243.131 246 249.651C234.74 256.171 234.72 266.668 246 273.188ZM240.34 261.419C240.34 258.01 242.844 254.691 247.395 252.063C252.422 249.162 259.163 247.564 266.381 247.564C273.599 247.564 280.347 249.162 285.374 252.063C289.938 254.671 292.422 258.01 292.422 261.419C292.422 264.829 289.918 268.148 285.374 270.776C280.347 273.677 273.599 275.274 266.381 275.274C259.163 275.274 252.422 273.677 247.395 270.776C242.844 268.135 240.34 264.816 240.34 261.406V261.419Z" fill="white"/>
<path d="M240.34 261.406C240.36 262.788 240.749 264.139 241.468 265.318C242.609 263.362 244.624 261.485 247.395 259.887C252.422 256.979 259.163 255.382 266.388 255.382C273.612 255.382 280.347 256.979 285.374 259.887C288.145 261.485 290.16 263.336 291.307 265.318C292.021 264.137 292.408 262.787 292.429 261.406C292.429 257.996 289.925 254.678 285.374 252.05C280.347 249.149 273.599 247.551 266.388 247.551C259.176 247.551 252.422 249.149 247.395 252.05C242.844 254.678 240.34 257.996 240.34 261.406Z" fill="#885048"/>
<path opacity="0.1" d="M240.34 261.406C240.36 262.788 240.749 264.139 241.468 265.318C242.609 263.362 244.624 261.485 247.395 259.887C252.422 256.979 259.163 255.382 266.388 255.382C273.612 255.382 280.347 256.979 285.374 259.887C288.145 261.485 290.16 263.336 291.307 265.318C292.021 264.137 292.408 262.787 292.429 261.406C292.429 257.996 289.925 254.678 285.374 252.05C280.347 249.149 273.599 247.551 266.388 247.551C259.176 247.551 252.422 249.149 247.395 252.05C242.844 254.678 240.34 257.996 240.34 261.406Z" fill="black"/>
<path opacity="0.6" d="M247.395 255.584C252.422 252.683 259.163 251.085 266.381 251.085C273.599 251.085 280.347 252.683 285.374 255.584C289.123 257.749 291.483 260.389 292.194 263.16C291.483 265.931 289.123 268.572 285.374 270.743C280.347 273.644 273.599 275.242 266.381 275.242C259.163 275.242 252.422 273.644 247.395 270.743C243.639 268.572 241.286 265.931 240.575 263.16C241.286 260.409 243.639 257.768 247.395 255.584Z" fill="white"/>
<path opacity="0.1" d="M259.594 277.589V285.413C254.824 284.825 250.21 283.331 246 281.012C240.373 277.752 237.556 273.501 237.556 269.243V261.419C237.558 260.552 237.674 259.688 237.902 258.851C236.533 263.917 239.206 269.283 245.993 273.195C250.207 275.509 254.822 277 259.594 277.589Z" fill="black"/>
<path d="M246.86 278.169C246.823 277.468 246.622 276.786 246.274 276.176C245.925 275.567 245.438 275.048 244.852 274.662C244.649 274.515 244.411 274.424 244.161 274.398C243.912 274.372 243.66 274.411 243.431 274.512L233.729 280.047C233.525 280.194 233.363 280.391 233.259 280.62C233.155 280.849 233.112 281.101 233.136 281.351C233.172 282.051 233.373 282.733 233.722 283.342C234.071 283.95 234.558 284.467 235.144 284.852C235.347 285.002 235.586 285.095 235.837 285.121C236.088 285.147 236.342 285.106 236.572 285.002L246.273 279.467C246.476 279.321 246.637 279.124 246.74 278.896C246.843 278.669 246.884 278.418 246.86 278.169Z" fill="#37474F"/>
<path d="M246.254 279.48C246.461 279.336 246.627 279.139 246.733 278.91C246.84 278.681 246.884 278.427 246.86 278.176C246.847 277.654 246.73 277.139 246.515 276.663L234.003 283.835C234.301 284.258 234.683 284.615 235.124 284.885C235.327 285.034 235.567 285.127 235.818 285.153C236.069 285.18 236.322 285.139 236.552 285.035L246.254 279.499V279.48Z" fill="#263238"/>
<path d="M236.761 284.839C236.715 283.927 236.455 283.039 236.002 282.246C235.549 281.453 234.915 280.778 234.153 280.275C233.892 280.087 233.586 279.969 233.267 279.934C232.947 279.898 232.623 279.946 232.327 280.073L207.114 293.289L211.913 301.765L236.037 286.521C236.295 286.329 236.497 286.072 236.624 285.777C236.751 285.482 236.798 285.158 236.761 284.839Z" fill="#885048"/>
<path opacity="0.1" d="M211.9 301.785L236.024 286.541C236.295 286.354 236.511 286.097 236.649 285.798C236.787 285.498 236.841 285.167 236.806 284.839C236.771 283.854 236.469 282.896 235.933 282.068L209.455 297.41L211.9 301.785Z" fill="black"/>
<path d="M209.455 301.53C208.455 300.871 207.624 299.986 207.029 298.946C206.435 297.906 206.093 296.741 206.032 295.545C206.032 293.341 207.59 292.461 209.488 293.589C210.488 294.248 211.319 295.134 211.913 296.173C212.508 297.213 212.85 298.378 212.911 299.574C212.904 301.752 211.352 302.639 209.455 301.53Z" fill="#885048"/>
<g opacity="0.2">
<path d="M209.455 301.53C208.455 300.871 207.624 299.986 207.029 298.946C206.435 297.906 206.093 296.741 206.032 295.545C206.032 293.341 207.59 292.461 209.488 293.589C210.488 294.248 211.319 295.134 211.913 296.173C212.508 297.213 212.85 298.378 212.911 299.574C212.904 301.752 211.352 302.639 209.455 301.53Z" fill="black"/>
</g>
<path d="M35.9252 273.129L36.9684 273.729L38.2268 274.492L90.7258 304.882C90.3346 304.002 90.641 302.274 91.5343 300.565C92.5775 298.609 94.1749 297.058 95.3354 296.999L43.1754 266.805L40.7565 265.364C42.2692 266.368 37.4509 274.094 35.9252 273.129Z" fill="#455A64"/>
<path d="M43.032 266.701L40.6978 265.397C40.0458 264.986 38.7418 266.179 37.6725 267.757C36.199 269.85 35.0059 272.621 35.8861 273.162L37.6074 274.146L38.2594 274.492C37.3792 273.944 38.5723 271.173 40.0458 269.08C41.1021 267.574 42.3148 266.414 42.9864 266.694L43.032 266.701Z" fill="#EBEBEB"/>
<path d="M42.4713 266.375C40.9325 265.423 36.1273 273.181 37.666 274.14L40.0002 275.483C38.4615 274.525 43.2602 266.766 44.8054 267.718L42.4713 266.375Z" fill="#885048"/>
<path d="M47.0288 268.996L44.7272 267.692C43.2211 266.74 38.5071 274.212 39.785 275.379L39.8633 275.437L42.1909 276.741C40.6848 275.757 45.4966 268.031 47.0288 268.996Z" fill="#EBEBEB"/>
<path d="M40.7565 265.364C40.1045 264.94 38.8396 266.14 37.7312 267.724C36.2773 269.778 35.1232 272.49 35.9122 273.09L26.1452 267.509C25.3628 266.974 25.1868 266.022 25.3889 264.973C25.93 262.137 29.2487 258.531 31.3547 259.965L40.7565 265.364Z" fill="#F28F8F"/>
<path d="M101.542 305.208C100.741 306.297 100.819 306.831 100.819 306.831L90.7258 304.875C89.7217 303.343 90.3802 300.859 91.769 299.085L92.2124 299.34L101.542 305.208Z" fill="#F28F8F"/>
<path d="M103.564 307.372L100.819 306.831C100.819 306.831 100.695 306.303 101.542 305.208L103.942 306.72C104.014 306.795 104.054 306.894 104.054 306.997C104.054 307.101 104.014 307.2 103.942 307.274C103.892 307.321 103.831 307.355 103.765 307.372C103.699 307.389 103.63 307.389 103.564 307.372Z" fill="#37474F"/>
<path d="M95.3224 296.966L102.247 304.823C101.97 304.868 101.717 305.006 101.529 305.214L92.1993 299.346L91.756 299.092C92.7144 297.853 93.9988 296.979 95.3224 296.966Z" fill="#FFA8A7"/>
<path d="M101.542 305.208C101.625 305.093 101.733 304.999 101.857 304.931C101.981 304.864 102.119 304.824 102.26 304.817L103.942 306.72L101.542 305.208Z" fill="#455A64"/>
<path opacity="0.2" d="M91.769 299.059L26.3734 262.606C25.9049 263.329 25.5713 264.131 25.3889 264.973C25.1802 266.029 25.3889 266.968 26.1517 267.509L35.9317 273.129L36.9749 273.729L38.2268 274.492L90.7258 304.882C89.4935 302.945 90.8431 300.142 91.769 299.059Z" fill="black"/>
<path d="M49.7606 117.36C48.0915 121.272 46.944 126.019 46.4354 131.984C45.4835 143.192 49.2782 179.496 51.5536 195.73C54.8528 222.854 58.8952 222.899 64.7697 227.444C74.8822 235.268 103.955 250.564 113.552 254.339C130.954 261.191 145.181 250.629 155.789 245.387C165.504 240.462 174.883 234.899 183.864 228.735C186.505 226.779 187.88 224.823 187.854 222.795C187.854 221.986 187.854 218.655 187.854 217.794C187.854 215.186 185.546 212.369 180.682 209.214C171.691 203.378 139.209 184.438 126.618 177.461C126.615 177.436 126.604 177.412 126.586 177.394C126.569 177.375 126.546 177.362 126.521 177.357C116.832 171.489 111.003 131.515 104.294 110.253C104.157 109.797 104.014 109.36 103.864 108.949C103.714 108.538 103.629 108.297 103.512 107.958C103.088 106.798 102.657 105.741 102.208 104.77" fill="#885048"/>
<path d="M187.88 217.768C187.88 215.16 185.572 212.343 180.708 209.188C171.724 203.352 139.241 184.412 126.651 177.435C126.647 177.41 126.636 177.386 126.619 177.368C126.601 177.349 126.578 177.336 126.553 177.331C116.864 171.463 111.036 131.489 104.327 110.227C103.929 108.899 103.461 107.593 102.925 106.315C102.886 106.217 102.84 106.126 102.801 106.028C102.683 105.748 102.553 105.461 102.416 105.168C102.357 105.024 102.292 104.874 102.227 104.731C101.138 102.442 99.6191 99.9321 97.7478 98.2629C97.0916 97.652 96.3544 97.1343 95.5571 96.7242C94.4683 96.0722 92.1798 94.8334 91.606 94.5009C85.0273 90.5889 76.4014 95.2898 65.6434 101.177C58.9604 104.842 53.2554 109.204 49.7802 117.321C48.1111 121.233 46.9636 125.979 46.455 131.945C45.5031 143.153 49.2977 179.457 51.5732 195.691C54.8723 222.815 58.9147 222.86 64.7892 227.405C74.9018 235.229 103.974 250.525 113.572 254.3C130.974 261.152 145.2 250.59 155.808 245.348C166.416 240.106 179.437 231.956 183.897 228.715C186.544 226.759 187.919 224.803 187.893 222.775C187.861 221.986 187.88 218.655 187.88 217.768Z" fill="#885048"/>
<path opacity="0.25" d="M187.88 217.768C187.88 215.16 185.572 212.343 180.708 209.188C171.724 203.352 139.241 184.412 126.651 177.435C126.647 177.41 126.636 177.386 126.619 177.368C126.601 177.349 126.578 177.336 126.553 177.331C116.864 171.463 111.036 131.489 104.327 110.227C103.929 108.899 103.461 107.593 102.925 106.315C102.886 106.217 102.84 106.126 102.801 106.028C102.683 105.748 102.553 105.461 102.416 105.168C102.357 105.024 102.292 104.874 102.227 104.731C101.138 102.442 99.6191 99.9321 97.7478 98.2629C97.0916 97.652 96.3544 97.1343 95.5571 96.7242C94.4683 96.0722 92.1798 94.8334 91.606 94.5009C85.0273 90.5889 76.4014 95.2898 65.6434 101.177C58.9604 104.842 53.2554 109.204 49.7802 117.321C48.1111 121.233 46.9636 125.979 46.455 131.945C45.5031 143.153 49.2977 179.457 51.5732 195.691C54.8723 222.815 58.9147 222.86 64.7892 227.405C74.9018 235.229 103.974 250.525 113.572 254.3C130.974 261.152 145.2 250.59 155.808 245.348C166.416 240.106 179.437 231.956 183.897 228.715C186.544 226.759 187.919 224.803 187.893 222.775C187.861 221.986 187.88 218.655 187.88 217.768Z" fill="white"/>
<path d="M155.776 240.327C165.496 235.406 174.88 229.845 183.864 223.682C189.895 219.307 189.341 214.821 180.695 209.214C168.685 201.422 119.727 173.641 119.727 173.641C119.727 173.641 57.8324 210.153 60.4926 216.914C63.1527 223.675 101.464 244.526 113.539 249.273C130.948 256.119 145.174 245.563 155.776 240.327Z" fill="#885048"/>
<path opacity="0.6" d="M155.776 240.327C165.496 235.406 174.88 229.845 183.864 223.682C189.895 219.307 189.341 214.821 180.695 209.214C168.685 201.422 119.727 173.641 119.727 173.641C119.727 173.641 57.8324 210.153 60.4926 216.914C63.1527 223.675 101.464 244.526 113.539 249.273C130.948 256.119 145.174 245.563 155.776 240.327Z" fill="white"/>
<path d="M95.5376 96.7568C89.0176 93.3338 80.5416 97.9826 70.1096 103.72C63.4005 107.397 57.6824 111.759 54.2073 119.909L49.7606 117.36C53.2293 109.243 58.9408 104.881 65.6238 101.216C76.3818 95.3485 85.0078 90.6019 91.5864 94.54C92.1602 94.866 94.4487 96.1374 95.5376 96.7568Z" fill="#885048"/>
<path opacity="0.5" d="M95.5376 96.7568C89.0176 93.3338 80.5416 97.9826 70.1096 103.72C63.4005 107.397 57.6824 111.759 54.2073 119.909L49.7606 117.36C53.2293 109.243 58.9408 104.881 65.6238 101.216C76.3818 95.3485 85.0078 90.6019 91.5864 94.54C92.1602 94.866 94.4487 96.1374 95.5376 96.7568Z" fill="white"/>
<path d="M104.32 110.253C104.183 109.797 101.94 101.999 97.7348 98.2955C95.7833 96.5429 93.251 95.5764 90.628 95.5832C84.936 95.5832 78.1096 99.3453 70.0965 103.72C69.4315 104.09 68.7795 104.468 68.1405 104.855C67.8862 104.998 67.6385 105.148 67.3972 105.298C67.156 105.448 66.8039 105.663 66.5105 105.852C66.2171 106.041 66.0802 106.126 65.8585 106.276C64.4479 107.206 63.1017 108.229 61.8292 109.34C61.6205 109.516 61.4249 109.699 61.2228 109.895C60.416 110.642 59.6519 111.434 58.9343 112.268L58.5496 112.718C58.3996 112.907 58.2366 113.096 58.0997 113.285C57.9628 113.474 57.8063 113.67 57.6564 113.872C57.5064 114.074 57.3695 114.257 57.2326 114.465C56.6529 115.29 56.1175 116.146 55.6286 117.028C55.5634 117.138 55.4982 117.249 55.4396 117.367C55.3092 117.601 55.1853 117.842 55.0614 118.09C54.8854 118.449 54.7158 118.807 54.5463 119.166C52.7207 123.189 51.4558 128.164 50.9212 134.495C49.3629 152.907 55.6743 213.771 62.0052 219.02C62.0052 219.02 61.0337 213.067 73.7412 205.048C82.3998 199.603 88.4764 195.026 97.7152 190.495C120.229 179.411 126.547 177.357 126.547 177.357C116.851 171.476 111.023 131.515 104.32 110.253Z" fill="#885048"/>
<path opacity="0.4" d="M104.32 110.253C104.183 109.797 101.94 101.999 97.7348 98.2955C95.7833 96.5429 93.251 95.5764 90.628 95.5832C84.936 95.5832 78.1096 99.3453 70.0965 103.72C69.4315 104.09 68.7795 104.468 68.1405 104.855C67.8862 104.998 67.6385 105.148 67.3972 105.298C67.156 105.448 66.8039 105.663 66.5105 105.852C66.2171 106.041 66.0802 106.126 65.8585 106.276C64.4479 107.206 63.1017 108.229 61.8292 109.34C61.6205 109.516 61.4249 109.699 61.2228 109.895C60.416 110.642 59.6519 111.434 58.9343 112.268L58.5496 112.718C58.3996 112.907 58.2366 113.096 58.0997 113.285C57.9628 113.474 57.8063 113.67 57.6564 113.872C57.5064 114.074 57.3695 114.257 57.2326 114.465C56.6529 115.29 56.1175 116.146 55.6286 117.028C55.5634 117.138 55.4982 117.249 55.4396 117.367C55.3092 117.601 55.1853 117.842 55.0614 118.09C54.8854 118.449 54.7158 118.807 54.5463 119.166C52.7207 123.189 51.4558 128.164 50.9212 134.495C49.3629 152.907 55.6743 213.771 62.0052 219.02C62.0052 219.02 61.0337 213.067 73.7412 205.048C82.3998 199.603 88.4764 195.026 97.7152 190.495C120.229 179.411 126.547 177.357 126.547 177.357C116.851 171.476 111.023 131.515 104.32 110.253Z" fill="white"/>
<path d="M74.8692 181.119C70.905 193.325 71.068 205.38 73.024 211.985C74.98 218.59 77.0794 227.698 94.8139 236.611C115.026 246.775 138.713 256.562 138.713 256.562L208.881 215.995L143.192 183.577L74.8692 181.119Z" fill="#885048"/>
<path opacity="0.15" d="M74.8692 181.119C70.905 193.325 71.068 205.38 73.024 211.985C74.98 218.59 77.0794 227.698 94.8139 236.611C115.026 246.775 138.713 256.562 138.713 256.562L208.881 215.995L143.192 183.577L74.8692 181.119Z" fill="black"/>
<path opacity="0.35" d="M95.192 223.427C94.6117 222.912 94.051 222.397 93.5098 221.876C98.2303 220.115 100.493 213.81 99.2214 207.075C98.4976 203.209 97.6696 198.827 97.787 194.589H96.9263C96.809 198.919 97.6435 203.352 98.3803 207.258C99.6843 214.058 97.311 219.887 92.8122 221.23C82.4324 211.02 82.8236 200.079 85.9336 185.298L85.0925 185.122C81.6826 201.325 82.0542 212.93 94.6182 224.099C102.879 231.44 134.697 245.426 147.332 251.6L148.239 251.098C135.649 244.93 103.479 230.808 95.192 223.427Z" fill="black"/>
<path opacity="0.35" d="M144.901 195.3C143.127 203.893 138.126 208.399 138.126 208.399C148.93 214.756 173.393 228.454 179.652 232.894L186.635 228.852L144.333 205.784C146.648 199.597 144.901 195.3 144.901 195.3Z" fill="black"/>
<path d="M83.3712 45.64C83.0648 35.5144 102.71 24.2805 121.311 36.512C139.913 48.7435 133.288 60.636 132.037 64.2481L132.689 116.284L72.3068 114.628C72.3068 114.628 73.6108 70.9441 73.3891 63.7721C73.1674 56.6001 75.5798 48.248 83.3712 45.64Z" fill="#263238"/>
<path d="M144.9 164.226L156.832 158.788L161.794 155.658C159.342 145.546 152.666 129.722 147.821 119.192C143.909 110.677 140.46 108.036 127.375 105.128L128.829 127.14L144.9 164.226Z" fill="#455A64"/>
<path d="M71.068 198.788C71.3549 186.648 75.3256 174.312 75.2408 171.659C74.8561 160.144 71.4853 145.077 70.3312 138.407C67.821 123.893 69.5162 112.392 72.8414 109.445C72.8414 109.445 83.8407 105.474 88.033 104.372C90.5498 103.72 88.5807 104.372 92.4275 103.72C98.85 102.675 105.369 102.347 111.864 102.742C113.448 102.866 120.959 103.987 120.959 103.987C123.241 104.463 127.394 105.122 127.401 105.128C127.407 105.135 132.669 109.236 137.709 117.777C141.556 124.297 141.699 136.685 141.895 150.312C142.156 168.34 143.114 173.028 146.289 185.096C137.709 203.724 90.5432 209.572 71.068 198.788Z" fill="#37474F"/>
<path d="M72.8154 109.445C67.4168 111.055 62.9441 113.513 61.7314 124.049C60.5186 134.586 69.9074 158.99 71.5114 163.085C73.1153 167.179 77.0794 173.184 80.8284 174.351C84.5774 175.518 87.518 145.742 87.518 145.742C87.518 145.742 84.1797 130.276 82.8105 125.608C81.4413 120.939 77.1707 112.098 72.8154 109.445Z" fill="#455A64"/>
<path d="M124.291 49.715C117.197 44.4533 104.659 44.8576 94.2271 52.9163C97.6631 59.2146 92.4275 63.7917 92.3558 67.658C94.0836 73.0566 91.2604 75.6189 89.5196 73.7086C86.8334 68.2448 81.1088 68.4926 78.7877 72.0982C76.6882 75.3582 77.1968 80.1503 81.513 84.5774C85.7184 88.9002 89.8782 86.1553 89.9173 85.2294C89.9173 85.2294 91.13 97.148 91.28 99.5343C91.43 101.921 91.1626 102.938 88.02 104.183C100.93 107.899 110.749 108.167 114.935 102.116C112.946 101.614 113.018 100.115 112.783 98.1325L112.274 94.1683C117.047 94.2205 119.486 93.6989 122.107 92.0754C126.019 89.65 128.959 83.2865 128.49 70.5594C128.125 61.1511 125.693 53.0076 124.291 49.715Z" fill="#FFBDA7"/>
<path d="M112.255 94.1944C103.675 93.9467 95.3028 91.7429 93.1317 88.0004C93.1317 88.0004 93.4055 92.245 97.0046 94.0249C102.058 96.5156 112.653 97.1936 112.653 97.1936L112.255 94.1944Z" fill="#B16668"/>
<path d="M117.823 53.8356L122.824 55.8438C122.705 56.172 122.521 56.4729 122.283 56.7287C122.045 56.9845 121.758 57.1899 121.44 57.3328C121.121 57.4757 120.777 57.5532 120.428 57.5606C120.079 57.568 119.732 57.5052 119.407 57.376C118.743 57.0974 118.21 56.5765 117.915 55.919C117.621 55.2615 117.588 54.5166 117.823 53.8356Z" fill="#263238"/>
<path d="M117.184 51.6905C117.132 51.6308 117.061 51.59 116.983 51.5747C116.905 51.5594 116.825 51.5703 116.754 51.6058C116.346 51.9182 116.021 52.3259 115.807 52.7931C115.594 53.2602 115.498 53.7727 115.528 54.2855C115.545 54.4712 115.589 54.6534 115.658 54.8266C115.726 55.0399 115.855 55.2283 116.03 55.3678C116.051 55.3871 116.079 55.3977 116.108 55.3977C116.137 55.3977 116.165 55.3871 116.186 55.3678C116.349 55.2309 116.284 54.9375 116.284 54.7158C116.284 54.4941 116.284 54.4159 116.284 54.2594C116.287 53.9811 116.328 53.7045 116.408 53.4379C116.57 52.9178 116.867 52.4498 117.269 52.0817C117.36 51.9839 117.275 51.7818 117.184 51.6905ZM109.36 55.0809C109.262 54.925 109.138 54.7862 108.995 54.6702C108.836 54.5134 108.634 54.4068 108.415 54.3637C108.386 54.358 108.357 54.3619 108.331 54.3749C108.305 54.3879 108.284 54.4092 108.271 54.4354C108.193 54.6376 108.388 54.8658 108.486 55.0418C108.584 55.2178 108.643 55.3026 108.714 55.433C108.842 55.6801 108.937 55.9433 108.995 56.2154C109.096 56.7543 109.051 57.3102 108.864 57.8258C108.819 57.9758 108.988 58.1192 109.119 58.1518C109.192 58.1787 109.273 58.1812 109.348 58.1589C109.423 58.1366 109.489 58.0907 109.536 58.028C109.84 57.3968 109.911 56.6789 109.738 56.0002C109.661 55.6717 109.524 55.3602 109.334 55.0809H109.36Z" fill="#F0997A"/>
<path d="M101.81 59.1168L106.85 57.0304C106.732 56.6944 106.546 56.3862 106.305 56.1246C106.063 55.8631 105.77 55.6538 105.445 55.5096C105.119 55.3655 104.768 55.2895 104.412 55.2864C104.056 55.2833 103.703 55.3532 103.375 55.4917C102.699 55.7807 102.16 56.3178 101.869 56.9922C101.578 57.6667 101.557 58.4271 101.81 59.1168Z" fill="#263238"/>
<path d="M102.449 66.4388C102.697 67.6385 104.157 68.3622 105.709 68.0427C107.261 67.7233 108.317 66.4975 108.076 65.2978C107.834 64.0981 107.045 66.1128 105.468 66.4323C103.89 66.7518 102.194 65.2391 102.449 66.4388Z" fill="#263238"/>
<path d="M118.788 64.8218C118.651 66.0411 119.812 67.1821 121.396 67.3712C122.98 67.5602 124.362 66.7192 124.499 65.5064C124.636 64.2937 123.274 65.9628 121.696 65.7737C120.118 65.5847 118.925 63.6026 118.788 64.8218Z" fill="#263238"/>
<path d="M116.004 80.7372C115.89 80.6384 115.765 80.5531 115.632 80.4829C115.458 80.4262 115.279 80.3848 115.098 80.359L114.204 80.1895C113.552 80.0786 112.9 79.9743 112.281 79.8896C111.662 79.8048 110.938 79.707 110.26 79.6418C109.589 79.5379 108.909 79.5051 108.232 79.544C107.952 79.544 107.997 79.9482 108.232 80.046C108.901 80.2629 109.596 80.3922 110.299 80.4307C110.951 80.522 111.603 80.6068 112.255 80.7046L114.146 80.9719C114.783 81.1442 115.451 81.1732 116.102 81.0566C116.219 81.011 116.056 80.7828 116.004 80.7372Z" fill="#B16668"/>
<path d="M95.1333 61.288L82.152 69.6466C82.868 69.4619 83.6135 69.4209 84.3454 69.5261C85.0773 69.6313 85.7811 69.8806 86.4161 70.2595L95.7462 64.3458L95.1333 61.288Z" fill="#455A64"/>
<path d="M130.263 58.0606C126.866 57.8911 122.289 58.0606 119.557 59.1494C116.499 60.3687 115.45 61.5423 113.735 61.6922C111.89 61.8422 110.67 60.8577 107.313 60.1666C104.633 59.6254 99.9386 60.2252 96.5938 60.8577C95.4398 60.962 94.4031 61.3923 94.4683 62.931C94.6834 64.3654 95.6354 64.5284 95.9483 65.6825C96.7372 69.6923 98.0999 74.667 103.394 74.5366C114.328 74.4258 110.175 64.059 114.211 64.3133C115.671 64.535 115.632 67.3386 116.643 69.262C117.024 70.0302 117.528 70.7307 118.136 71.3353C121.924 74.8431 128.535 72.2872 129.331 68.4861C130.12 66.5757 129.774 63.6091 130.635 61.9661C131.417 61.1446 131.958 58.3605 130.263 58.0606ZM110.116 67.808C109.944 68.943 109.481 70.0142 108.773 70.918C108.229 71.5519 107.558 72.0642 106.803 72.4214C106.048 72.7787 105.227 72.9729 104.392 72.9914C102.038 73.1414 99.6126 72.209 98.8562 69.9661C98.765 69.7575 98.6802 69.5554 98.602 69.3598C98.0282 67.6972 97.1741 64.1438 98.0086 63.0484C99.5408 61.2032 107.365 60.799 109.823 63.2766C110.501 64.1112 110.403 66.0802 110.116 67.808ZM128.653 65.6303C128.464 66.817 128.046 69.3924 125.875 70.6833C123 72.385 118.755 71.1332 117.947 68.284C115.776 62.3377 118.045 60.7729 124.043 59.7623C129.011 59.3907 129.37 60.636 128.653 65.5977V65.6303Z" fill="#455A64"/>
<path d="M120.998 73.1414L114.159 77.0534L112.203 66.2236C112.314 65.6875 112.568 65.1917 112.939 64.7892L120.998 73.1414Z" fill="#F0997A"/>
<path d="M91.1627 98.0999C89.2067 98.5498 89.3371 99.1171 89.2067 101.419C89.0763 103.72 86.6834 103.838 86.5009 104.796C86.3183 105.754 93.875 113.161 107.006 110.697C120.046 108.258 118.684 102.768 118.684 102.768C118.214 101.999 117.204 101.94 115.606 101.393C114.009 100.845 113.976 100.447 113.95 99.2605C113.924 98.0739 113.637 97.787 112.75 98.1586V99.091C112.75 99.091 112.75 101.412 104.307 101.908C95.0812 102.449 91.267 99.5604 91.267 99.5604L91.1627 98.0999Z" fill="#455A64"/>
<path d="M101.06 91.2278C101.909 92.6579 102.175 94.3599 101.803 95.9809C101.562 96.9459 100.727 97.487 100.291 98.3542C99.5995 99.7169 99.2735 101.243 98.3346 102.494C97.8103 103.279 97.0095 103.838 96.0918 104.059C95.7981 103.341 95.7188 102.553 95.8636 101.79C96.2943 99.1069 96.4755 96.3895 96.4047 93.6728C96.3299 92.4452 96.111 91.2307 95.7527 90.0542C95.5832 89.4805 95.1007 87.9157 95.8701 87.544C96.0672 87.4667 96.2831 87.4508 96.4895 87.4984C98.4455 87.7527 99.5995 88.835 100.63 90.4715C100.799 90.7192 100.949 90.9735 101.06 91.2278Z" fill="#FFBDA7"/>
<path d="M98.3738 102.494C97.8518 103.313 97.0346 103.899 96.0918 104.131C95.505 103.009 95.8375 101.712 95.9418 100.525C96.3265 97.0111 96.6851 93.3925 95.5636 89.976C94.6313 86.8725 96.3069 86.8268 98.6215 88.0722C100.969 89.8065 102.605 93.073 101.829 95.9809C102.397 93.6142 101.236 91.2604 99.769 89.4609C99.0331 88.5529 98.0016 87.9321 96.8546 87.707C96.3265 87.6027 95.7332 87.4984 95.6549 88.1895C95.6549 89.9238 96.5938 91.619 96.5938 93.4055C96.703 95.8039 96.5654 98.2072 96.183 100.578C96.0461 101.745 95.7006 102.957 96.183 104.053L96.1178 104.02C97.0319 103.818 97.837 103.281 98.3738 102.514V102.494Z" fill="#B16668"/>
<path d="M93.399 115.404C94.9116 107.906 94.5139 104.424 96.9589 100.78C98.3803 98.6541 102.827 93.8815 104.307 92.5383C105.787 91.1952 108.662 89.3762 110.97 87.5506C113.278 85.725 113.95 85.2164 116.695 85.3207C120.464 85.4707 123.437 85.4968 124.773 86.227C126.11 86.9572 125.869 87.8896 124.369 88.8937C122.869 89.8977 120.19 89.65 119.329 89.7282C118.468 89.8065 116.532 90.2042 116.532 90.2042L112.144 94.4292C112.144 94.4292 117.64 96.6851 118.631 97.5262C119.622 98.3672 119.975 101.438 119.146 102.97C119.146 102.97 120.946 104.829 119.694 106.719C119.694 106.719 120.627 108.675 119.459 109.842C118.184 111.022 116.778 112.05 115.267 112.907C114.439 113.363 111.655 112.939 111.655 112.939C111.246 114.702 110.676 116.424 109.953 118.084C108.395 121.22 106.739 121.415 106.041 124.173L93.399 115.404Z" fill="#FFBDA7"/>
<path d="M119.055 103.088C118.361 102.195 117.555 101.395 116.656 100.708C115.815 100.056 114.009 98.9606 114.009 98.9606C115.345 99.3621 116.614 99.9574 117.777 100.727C118.37 101.113 118.929 101.549 119.446 102.031C119.385 102.351 119.276 102.659 119.12 102.944L119.055 103.088Z" fill="#F0997A"/>
<path d="M118.834 105.05C119.249 105.334 119.644 105.648 120.014 105.989C119.911 106.296 119.771 106.59 119.596 106.863C119.075 105.644 116.473 103.87 116.473 103.87C117.302 104.173 118.094 104.569 118.834 105.05Z" fill="#F0997A"/>
<path d="M111.629 112.939C112.391 111.636 113.439 110.521 114.693 109.679C115.723 108.904 117.301 109.38 117.543 109.999C117.784 110.618 115.945 110.162 115.358 110.286C114.772 110.41 112.894 111.635 111.629 112.939Z" fill="#F0997A"/>
<path d="M110.586 93.9532C110.586 93.9532 111.942 92.6948 114.309 90.7388C116.675 88.7828 116.486 89.1023 118.384 89.1218C120.151 89.1218 123.847 89.2588 125.014 88.359C124.808 88.5402 124.59 88.7079 124.362 88.861C122.902 89.8325 120.183 89.6174 119.323 89.6956C118.462 89.7739 116.525 90.1716 116.525 90.1716L111.961 94.553L110.586 93.9532Z" fill="#F0997A"/>
<path d="M93.399 115.404C93.9141 112.933 94.2857 110.429 94.6704 107.932C95.0551 105.435 95.5832 102.918 97.0241 100.832C98.543 98.8177 100.185 96.8994 101.94 95.0877C102.814 94.1749 103.681 93.2555 104.613 92.4145C105.546 91.5734 106.602 90.8757 107.632 90.1455C108.662 89.4153 109.699 88.685 110.703 87.9157C111.641 87.0846 112.679 86.3749 113.794 85.8032C114.941 85.3337 116.226 85.4511 117.484 85.4967C118.742 85.5424 120.007 85.5815 121.265 85.6793C122.524 85.7771 123.821 85.8553 124.858 86.4682C125.11 86.6018 125.313 86.8118 125.438 87.0681C125.481 87.194 125.491 87.3286 125.469 87.4596C125.446 87.5906 125.391 87.7137 125.308 87.8179C124.939 88.2985 124.464 88.6868 123.919 88.9523C122.758 89.3892 121.521 89.5888 120.281 89.5391C119.961 89.5391 119.629 89.5391 119.323 89.5391L118.377 89.7021L116.499 90.0281H116.454H116.421L112.02 94.2922L111.87 94.4422L112.066 94.5269C114.022 95.3615 116.049 96.183 117.934 97.2067C118.957 97.6239 119.238 98.7584 119.401 99.8147C119.577 100.86 119.445 101.933 119.023 102.905L118.983 102.977L119.042 103.042C119.49 103.531 119.803 104.129 119.948 104.776C120.077 105.427 119.944 106.102 119.577 106.654L119.544 106.706V106.758C119.78 107.188 119.904 107.67 119.904 108.16C119.904 108.65 119.78 109.133 119.544 109.562C118.855 110.298 118.085 110.954 117.249 111.518C116.838 111.811 116.415 112.098 115.991 112.366C115.609 112.676 115.164 112.898 114.687 113.018C113.681 113.094 112.67 113.052 111.675 112.894H111.603V112.959C111.18 115.036 110.469 117.044 109.49 118.925C108.926 119.826 108.27 120.667 107.534 121.435C106.808 122.219 106.295 123.175 106.041 124.212C106.307 123.182 106.83 122.235 107.56 121.461C108.296 120.698 108.952 119.861 109.516 118.964C110.523 117.085 111.263 115.075 111.714 112.992L111.629 113.05C112.636 113.229 113.661 113.277 114.68 113.194C115.192 113.089 115.672 112.866 116.082 112.542C116.519 112.274 116.936 111.994 117.353 111.701C118.207 111.139 118.995 110.483 119.701 109.745C119.968 109.289 120.115 108.773 120.127 108.245C120.14 107.716 120.018 107.194 119.772 106.726V106.83C120.17 106.232 120.315 105.501 120.177 104.796C120.024 104.104 119.694 103.463 119.218 102.938V103.075C119.672 102.052 119.817 100.919 119.635 99.8147C119.571 99.2675 119.431 98.732 119.218 98.2238C118.984 97.7024 118.57 97.2833 118.051 97.0437C116.144 96.0363 114.185 95.1288 112.183 94.3248L112.229 94.5595L116.643 90.3085L116.571 90.3476L118.423 90.0347L119.355 89.8782C119.655 89.8782 119.975 89.8782 120.287 89.8782C121.577 89.9352 122.865 89.7243 124.069 89.2588C124.665 88.9673 125.184 88.5382 125.582 88.0069C125.693 87.8603 125.766 87.6878 125.794 87.5054C125.821 87.3231 125.802 87.1367 125.738 86.9637C125.586 86.6474 125.34 86.3856 125.034 86.2139C123.86 85.5619 122.543 85.5163 121.292 85.3924C120.04 85.2685 118.762 85.2685 117.497 85.2229C116.232 85.1773 114.928 85.0664 113.702 85.5685C112.568 86.1559 111.51 86.8808 110.553 87.7266C109.562 88.5025 108.532 89.2327 107.502 89.9695C106.472 90.7062 105.435 91.4234 104.476 92.2645C103.518 93.1056 102.67 94.0445 101.803 94.9638C100.043 96.7849 98.4011 98.7166 96.8872 100.747C95.4332 102.879 94.9312 105.448 94.5856 107.919C94.2401 110.39 93.888 112.894 93.399 115.404Z" fill="#B16668"/>
<path d="M93.399 115.404C92.095 122.041 75.6385 147.209 74.1911 153.396C72.7436 159.584 76.8708 171.372 79.9417 173.856C83.0126 176.34 90.2498 173.556 93.9728 166.684C97.6957 159.812 103.798 133.66 106.022 124.173L93.399 115.404Z" fill="#FFBDA7"/>
<path d="M72.1438 166.912C72.7436 167.923 74.0346 168.868 74.2106 169.924C74.641 172.61 80.3394 173.973 82.4976 175.87C88.5938 179.717 103.746 179.47 115.241 177.468C133.96 174.208 155.013 166.879 159.857 161.442C162.778 158.182 162.12 155.73 161.116 154.159C159.277 151.264 157.093 150.195 155.854 149.419C150.638 146.159 143.89 146.811 141.823 147.417C133.741 152.343 125.183 156.441 116.278 159.649C113.166 160.626 109.939 161.185 106.68 161.311C104.659 161.253 103.459 161.246 102.279 160.046C100.389 158.134 98.1834 156.561 95.7592 155.398C93.8032 154.433 92.7079 153.579 90.2824 151.649C89.7804 151.238 88.9263 151.551 88.4634 152.014C88.2449 152.265 88.0905 152.565 88.0133 152.888C87.9361 153.212 87.9384 153.549 88.02 153.872C88.5025 157.171 91.2083 159.427 93.0339 162.042C93.6159 162.719 93.9168 163.594 93.875 164.487C93.7715 164.919 93.5591 165.319 93.2578 165.646C92.9565 165.974 92.5764 166.219 92.1537 166.358C89.7413 167.29 77.3794 167.505 71.5766 163.28C71.5766 163.306 71.3223 165.523 72.1438 166.912Z" fill="#FFBDA7"/>
<path d="M102.279 160.073C100.701 158.394 98.8788 156.963 96.8742 155.828C95.8636 155.261 94.8399 154.785 93.901 154.139C92.9622 153.494 92.0754 152.79 91.1822 152.072L90.5302 151.531C90.3963 151.41 90.2378 151.32 90.0657 151.266C89.8935 151.212 89.7117 151.196 89.5326 151.218C89.2001 151.255 88.8811 151.371 88.6022 151.556C88.3233 151.741 88.0924 151.989 87.9287 152.281C87.6686 152.867 87.6135 153.524 87.7722 154.146C87.8715 154.732 88.0378 155.306 88.2678 155.854C89.2001 158.064 90.8758 159.766 92.2319 161.533C92.8839 162.42 93.6533 163.372 93.5816 164.356C93.5098 165.341 92.5058 166.077 91.4691 166.26C89.2309 166.627 86.9595 166.75 84.6948 166.625C82.4162 166.547 80.149 166.266 77.9205 165.784C75.6718 165.361 73.5223 164.521 71.5831 163.306C73.4786 164.622 75.6038 165.571 77.8488 166.104C80.0862 166.654 82.3688 167.001 84.6687 167.14C86.9821 167.325 89.3093 167.228 91.5995 166.853C92.2363 166.775 92.8319 166.497 93.3005 166.059C93.7692 165.621 94.0867 165.045 94.2075 164.415C94.2857 163.026 93.4055 162.042 92.76 161.155C91.3452 159.329 89.6956 157.699 88.848 155.645C88.6278 155.14 88.468 154.61 88.3721 154.068C88.2359 153.571 88.268 153.044 88.4634 152.568C88.5855 152.361 88.7527 152.185 88.9525 152.052C89.1523 151.918 89.3796 151.832 89.6174 151.799C89.7231 151.777 89.8327 151.781 89.9363 151.812C90.0398 151.843 90.1342 151.898 90.2107 151.975L90.8953 152.496C91.8081 153.194 92.7209 153.898 93.6989 154.517C94.6769 155.137 95.7397 155.619 96.7503 156.141C98.778 157.17 100.641 158.495 102.279 160.073Z" fill="#F0997A"/>
<path d="M48.2871 241.155V255.16L137.161 306.525V292.52L48.2871 241.155Z" fill="#37474F"/>
<path d="M137.161 292.52L292.213 202.994V216.999L137.161 306.525V292.52Z" fill="#455A64"/>
<path d="M137.161 287.219L44.7207 233.807L202.739 142.566L295.173 195.985L137.161 287.219Z" fill="#885048"/>
<path opacity="0.8" d="M137.161 287.219L44.7207 233.807L202.739 142.566L295.173 195.985L137.161 287.219Z" fill="white"/>
<path d="M44.7207 233.807V241.234L137.161 294.645V287.219L44.7207 233.807Z" fill="#885048"/>
<path opacity="0.5" d="M44.7207 233.807V241.234L137.161 294.645V287.219L44.7207 233.807Z" fill="white"/>
<path d="M137.161 294.645L295.18 203.411L295.173 195.985L137.161 287.219V294.645Z" fill="#885048"/>
<path opacity="0.65" d="M137.161 287.219L295.173 195.985L295.18 203.411L137.161 294.645V287.219Z" fill="white"/>
<path d="M40.424 228.278C38.2333 226.583 35.9969 224.953 33.7932 223.271C32.8021 222.506 31.8067 221.75 30.807 221.002C30.2593 220.598 29.7116 220.187 29.1509 219.796C28.8896 219.565 28.5729 219.405 28.2316 219.333C28.0751 219.333 27.7035 219.378 27.6187 219.541L27.5405 219.685C27.4825 219.785 27.4553 219.901 27.4622 220.017C27.4692 220.133 27.51 220.244 27.5796 220.337C28.5228 221.284 29.5387 222.156 30.6179 222.945C31.5438 223.688 32.4826 224.405 33.415 225.129C35.3384 226.609 37.2422 228.122 39.2048 229.55C39.3251 229.654 39.4712 229.724 39.6278 229.753C39.7844 229.782 39.9459 229.768 40.0955 229.714C40.2451 229.659 40.3774 229.566 40.4788 229.443C40.5801 229.32 40.6467 229.172 40.6718 229.015C40.6989 228.881 40.6903 228.743 40.6468 228.613C40.6033 228.484 40.5264 228.368 40.424 228.278Z" fill="#E0E0E0"/>
<path d="M38.7158 231.897C36.0426 231.173 33.3498 230.515 30.6766 229.804C29.4704 229.484 28.2577 229.152 27.045 228.852C26.393 228.682 25.741 228.519 25.0564 228.37C24.7282 228.253 24.3748 228.226 24.0327 228.291C23.8828 228.343 23.5633 228.532 23.5437 228.722V228.885C23.5297 229 23.5494 229.116 23.6003 229.22C23.6512 229.325 23.7312 229.412 23.8306 229.471C25.0636 229.981 26.3345 230.393 27.6318 230.704C28.7662 231.036 29.9072 231.356 31.0482 231.656C33.3954 232.308 35.7296 232.96 38.0898 233.527C38.2408 233.576 38.4024 233.585 38.5577 233.551C38.713 233.518 38.8566 233.443 38.9735 233.335C39.0905 233.228 39.1766 233.091 39.2229 232.939C39.2693 232.787 39.2743 232.625 39.2374 232.471C39.2103 232.337 39.1475 232.213 39.0557 232.112C38.9639 232.011 38.8464 231.936 38.7158 231.897Z" fill="#E0E0E0"/>
<path d="M37.3205 235.457C34.7125 236.311 32.0719 237.23 29.4443 238.065C28.2577 238.456 27.0645 238.847 25.8844 239.251C25.2324 239.473 24.5804 239.695 23.9284 239.942C23.5904 240.023 23.2798 240.191 23.0286 240.431C22.9308 240.562 22.7678 240.894 22.8526 241.083L22.9308 241.233C22.9816 241.338 23.0618 241.425 23.1614 241.484C23.2611 241.543 23.3758 241.571 23.4916 241.566C24.8004 241.316 26.0885 240.967 27.3449 240.523C28.4794 240.177 29.6008 239.812 30.7288 239.447C33.0368 238.697 35.358 237.98 37.6465 237.165C37.8003 237.124 37.9405 237.043 38.0524 236.93C38.1644 236.817 38.2441 236.676 38.2833 236.522C38.3226 236.367 38.3199 236.206 38.2755 236.053C38.2312 235.9 38.1468 235.762 38.0312 235.652C37.9385 235.563 37.8249 235.498 37.7008 235.464C37.5766 235.43 37.4459 235.427 37.3205 235.457Z" fill="#E0E0E0"/>
<path d="M300.774 200.164C303.382 200.679 305.99 201.122 308.598 201.618C309.778 201.84 310.952 202.068 312.125 202.27C312.777 202.387 313.429 202.498 314.081 202.596C314.404 202.684 314.744 202.684 315.066 202.596C315.203 202.537 315.496 202.335 315.503 202.153V202.003C315.51 201.892 315.484 201.781 315.429 201.684C315.373 201.588 315.29 201.51 315.19 201.461C313.979 201.06 312.738 200.753 311.48 200.542C310.378 200.301 309.263 200.086 308.155 199.89C305.879 199.44 303.591 198.964 301.315 198.586C301.167 198.549 301.012 198.552 300.866 198.595C300.719 198.638 300.587 198.719 300.482 198.83C300.378 198.941 300.304 199.077 300.269 199.226C300.235 199.374 300.24 199.529 300.285 199.675C300.321 199.79 300.384 199.895 300.469 199.98C300.554 200.065 300.659 200.128 300.774 200.164Z" fill="#E0E0E0"/>
<path d="M300.696 196.317C303.304 195.796 305.873 195.202 308.468 194.668C309.641 194.426 310.808 194.185 311.975 193.931C312.627 193.794 313.279 193.651 313.886 193.488C314.216 193.45 314.53 193.321 314.792 193.116C314.903 193.012 315.099 192.712 315.033 192.542L314.975 192.399C314.938 192.294 314.871 192.202 314.783 192.134C314.696 192.065 314.59 192.024 314.479 192.014C313.208 192.108 311.946 192.3 310.704 192.588C309.589 192.79 308.481 193.018 307.372 193.24C305.097 193.696 302.808 194.127 300.552 194.648C300.401 194.669 300.259 194.731 300.14 194.826C300.02 194.921 299.929 195.046 299.874 195.188C299.82 195.331 299.804 195.485 299.829 195.635C299.855 195.786 299.92 195.927 300.018 196.043C300.097 196.144 300.202 196.222 300.32 196.27C300.439 196.318 300.569 196.335 300.696 196.317Z" fill="#E0E0E0"/>
<path d="M300.363 192.679C302.254 190.821 304.093 188.917 305.977 187.052C306.825 186.205 307.672 185.364 308.507 184.516C308.97 184.047 309.426 183.584 309.87 183.101C310.122 182.885 310.313 182.606 310.424 182.293C310.456 182.143 310.456 181.791 310.306 181.68L310.182 181.589C310.092 181.514 309.981 181.469 309.864 181.461C309.747 181.453 309.63 181.481 309.53 181.543C308.517 182.317 307.565 183.167 306.681 184.086C305.86 184.862 305.058 185.657 304.249 186.452C302.593 188.076 300.918 189.712 299.307 191.362C299.192 191.463 299.107 191.592 299.059 191.737C299.011 191.882 299.004 192.037 299.036 192.186C299.069 192.336 299.141 192.473 299.245 192.585C299.348 192.697 299.48 192.779 299.627 192.822C299.751 192.868 299.885 192.878 300.015 192.853C300.145 192.827 300.265 192.767 300.363 192.679Z" fill="#E0E0E0"/>
<path d="M182.645 190.651L233.233 219.861L269.367 198.997L218.779 169.787L182.645 190.651Z" fill="#FAFAFA"/>
<path opacity="0.3" d="M270.913 195.202L266.857 197.543L218.779 169.787L186.707 188.304L184.19 186.857L220.33 165.993L270.913 195.202Z" fill="#885048"/>
<path d="M266.857 197.543L234.779 216.066L186.707 188.304L218.779 169.787L266.857 197.543Z" fill="#E0E0E0"/>
<path d="M184.92 184.627L235.509 213.836L271.643 192.972L221.054 163.763L184.92 184.627Z" fill="#FAFAFA"/>
<path opacity="0.1" d="M127.27 267.222L212.278 218.14L157.021 186.231L72.0134 235.32L127.27 267.222Z" fill="black"/>
<path d="M127.199 263.284L207.271 217.051L156.115 187.515L76.0428 233.749L127.199 263.284Z" fill="#885048"/>
<path opacity="0.15" d="M127.199 263.284L207.271 217.051L156.115 187.515L76.0428 233.749L127.199 263.284Z" fill="black"/>
<path d="M166.175 239.551V238.123C166.175 236.363 169.318 231.33 173.243 229.061L205.054 210.7V217.116L166.175 239.551Z" fill="#F5F5F5"/>
<path d="M205.041 210.7L173.23 229.061C169.318 231.323 166.143 236.363 166.162 238.123V239.551L117.23 211.3V209.866C117.23 208.105 120.366 203.072 124.297 200.803L156.089 182.449L205.041 210.7Z" fill="#FAFAFA"/>
<path d="M205.041 210.7L173.23 229.061C169.318 231.323 166.143 236.363 166.162 238.123V239.551L117.23 211.3V209.866C117.23 208.105 120.366 203.072 124.297 200.803L156.108 182.436L205.041 210.7Z" fill="#FAFAFA"/>
<path d="M166.162 238.228L163.117 236.461L159.088 234.14C161.337 233.879 162.928 234.218 164.03 234.85C164.64 235.189 165.155 235.676 165.528 236.266C165.901 236.857 166.119 237.531 166.162 238.228Z" fill="#F0F0F0"/>
<path d="M166.162 238.228L163.117 236.461L159.088 234.14C161.337 233.879 162.928 234.218 164.03 234.85C164.64 235.189 165.155 235.676 165.528 236.266C165.901 236.857 166.119 237.531 166.162 238.228Z" fill="#E0E0E0"/>
<path d="M127.212 264.614L127.199 263.284L76.0428 233.749V235.072L127.212 264.614Z" fill="#885048"/>
<path opacity="0.3" d="M127.212 264.614L127.199 263.284L76.0428 233.749V235.072L127.212 264.614Z" fill="black"/>
<path d="M127.212 264.614L207.284 218.387L207.271 217.051L127.199 263.284L127.212 264.614Z" fill="#885048"/>
<path d="M166.162 238.228C166.162 236.461 162.902 234.968 158.99 237.25L127.192 255.467V262.058L166.175 239.551C166.175 239.551 166.175 239.988 166.162 238.228Z" fill="#F5F5F5"/>
<path d="M127.192 262.058V255.467L78.2596 227.215V233.807L127.192 262.058Z" fill="#EBEBEB"/>
<path d="M158.997 237.25L157.569 238.065L127.192 255.467L83.9711 230.515L78.24 227.215L110.045 208.999C112.926 207.342 114.537 207.473 115.671 208.118L165.275 236.754C163.502 235.744 161.416 235.959 158.997 237.25Z" fill="#FAFAFA"/>
<path d="M124.969 250.498L152.046 234.876L153.474 234.061L154.517 234.661L153.09 235.476L126.012 251.105L124.969 250.498Z" fill="#E0E0E0"/>
<path d="M122.472 249.058L149.549 233.436L150.971 232.621L152.014 233.22L150.592 234.035L123.508 249.657L122.472 249.058Z" fill="#E0E0E0"/>
<path d="M119.968 247.617L147.046 231.988L148.473 231.173L149.517 231.779L148.089 232.594L121.011 248.216L119.968 247.617Z" fill="#E0E0E0"/>
<path d="M117.464 246.169L144.548 230.547L145.97 229.732L147.013 230.332L145.592 231.147L118.508 246.775L117.464 246.169Z" fill="#E0E0E0"/>
<path d="M114.967 244.728L142.045 229.1L143.473 228.285L144.516 228.891L143.088 229.706L116.01 245.328L114.967 244.728Z" fill="#E0E0E0"/>
<path d="M112.463 243.281L139.548 227.659L140.969 226.844L142.012 227.444L140.591 228.259L113.507 243.887L112.463 243.281Z" fill="#E0E0E0"/>
<path d="M109.966 241.84L137.044 226.211L138.472 225.396L139.508 226.003L138.087 226.818L111.01 242.44L109.966 241.84Z" fill="#E0E0E0"/>
<path d="M107.463 240.392L134.547 224.77L135.968 223.955L137.011 224.555L135.583 225.37L108.506 240.999L107.463 240.392Z" fill="#E0E0E0"/>
<path d="M104.965 238.951L132.043 223.33L133.471 222.515L134.514 223.114L133.086 223.929L106.009 239.551L104.965 238.951Z" fill="#E0E0E0"/>
<path d="M102.462 237.511L129.546 221.882L130.967 221.067L132.01 221.673L130.583 222.482L103.505 238.11L102.462 237.511Z" fill="#E0E0E0"/>
<path d="M99.9647 236.063L127.042 220.441L128.47 219.626L129.507 220.226L128.085 221.041L101.008 236.663L99.9647 236.063Z" fill="#E0E0E0"/>
<path d="M97.461 234.622L124.539 218.994L125.966 218.179L127.01 218.785L125.582 219.6L98.5042 235.222L97.461 234.622Z" fill="#E0E0E0"/>
<path d="M94.9638 233.175L122.041 217.553L123.469 216.738L124.506 217.338L123.085 218.153L96.0005 233.781L94.9638 233.175Z" fill="#E0E0E0"/>
<path d="M92.4601 231.734L119.538 216.105L120.966 215.29L122.009 215.897L120.581 216.712L93.5033 232.334L92.4601 231.734Z" fill="#E0E0E0"/>
<path d="M89.963 230.286L117.041 214.664L118.462 213.849L119.505 214.449L118.084 215.264L90.9996 230.893L89.963 230.286Z" fill="#E0E0E0"/>
<path d="M87.4593 228.845L114.537 213.217L115.965 212.409L117.008 213.008L115.58 213.823L88.5025 229.445L87.4593 228.845Z" fill="#E0E0E0"/>
<path d="M84.9621 227.398L112.04 211.776L113.461 210.961L114.504 211.567L113.083 212.376L85.9988 228.004L84.9621 227.398Z" fill="#E0E0E0"/>
<path opacity="0.1" d="M159.297 235.542C158.71 235.6 157.465 235.998 156.78 236.154C153.885 236.806 148.786 239.134 143.903 241.579C137.383 244.839 131.228 248.334 131.228 248.334L86.4552 222.521L110.064 208.999C110.967 208.447 111.95 208.038 112.979 207.786C113.694 207.903 114.384 208.141 115.019 208.49L115.332 207.942C115.456 207.993 115.575 208.052 115.691 208.118L165.295 236.754C162.511 235.15 161.214 235.372 159.297 235.542Z" fill="black"/>
<path d="M127.16 256.901L132.017 254.443L127.192 257.377L122.348 254.58L127.16 256.901Z" fill="#E6E6E6"/>
<path d="M127.199 260.2L136.098 255.062L127.199 259.855L117.19 254.423L127.199 260.2Z" fill="#E6E6E6"/>
<path d="M78.2596 228.669L85.7445 233.181L78.2596 229.361V228.669Z" fill="#E6E6E6"/>
<path d="M78.2726 231.245L89.3827 238.039L78.2596 231.858L78.2726 231.245Z" fill="#E6E6E6"/>
<path d="M159.088 234.14C158.446 234.212 157.808 234.321 157.178 234.466C154.289 235.118 149.191 237.445 144.301 239.89C137.781 243.15 131.626 246.645 131.626 246.645L82.6801 218.42C82.6801 218.42 101.308 207.695 108.617 206.28C112.046 205.628 114.152 206.078 115.43 206.808L164.037 234.844C162.941 234.218 161.35 233.879 159.088 234.14Z" fill="#F5F5F5"/>
<path d="M158.488 231.643C157.386 230.991 155.789 230.671 153.546 230.925C152.903 230.999 152.266 231.11 151.636 231.258C148.883 232.034 146.208 233.059 143.642 234.322C142.051 235.059 140.382 235.861 138.759 236.683C134.847 238.639 131.039 240.692 128.646 242.009L129.755 242.661C132.154 241.357 135.942 239.297 139.874 237.328C141.504 236.513 143.134 235.705 144.751 234.974C147.317 233.711 149.992 232.683 152.744 231.903C153.374 231.758 154.012 231.65 154.654 231.577C156.904 231.317 158.495 231.656 159.597 232.295L158.488 231.643Z" fill="#E0E0E0"/>
<path d="M155.978 230.195C154.883 229.543 153.285 229.224 151.036 229.484C150.395 229.557 149.76 229.666 149.132 229.81C146.379 230.586 143.703 231.614 141.138 232.881C139.548 233.612 137.878 234.414 136.255 235.235C132.343 237.191 128.535 239.245 126.136 240.568L127.251 241.22C129.65 239.916 133.438 237.856 137.363 235.894C139 235.072 140.623 234.27 142.247 233.533C144.813 232.27 147.488 231.242 150.24 230.462C150.87 230.317 151.508 230.209 152.151 230.136C154.4 229.882 155.991 230.215 157.093 230.854L155.978 230.195Z" fill="#E0E0E0"/>
<path d="M153.474 228.754C152.372 228.102 150.782 227.776 148.532 228.037C147.89 228.109 147.252 228.218 146.622 228.363C143.87 229.147 141.196 230.184 138.635 231.46C137.037 232.19 135.375 232.999 133.751 233.814C129.839 235.77 126.032 237.83 123.632 239.147L124.747 239.799C127.14 238.495 130.935 236.435 134.86 234.472C136.496 233.651 138.12 232.849 139.743 232.112C142.309 230.849 144.985 229.821 147.737 229.041C148.367 228.899 149.005 228.79 149.647 228.715C151.896 228.461 153.487 228.8 154.589 229.432L153.474 228.754Z" fill="#E0E0E0"/>
<path d="M150.971 227.307C149.869 226.655 148.278 226.329 146.028 226.59C145.386 226.662 144.748 226.771 144.118 226.916C141.366 227.695 138.691 228.723 136.125 229.986C134.534 230.723 132.865 231.525 131.241 232.34C127.329 234.296 123.528 236.357 121.129 237.674L122.243 238.326C124.636 237.022 128.424 234.968 132.356 232.999C133.993 232.177 135.649 231.375 137.239 230.638C139.805 229.376 142.481 228.35 145.233 227.574C145.862 227.425 146.5 227.317 147.143 227.248C149.386 226.987 150.984 227.326 152.086 227.959L150.971 227.307Z" fill="#E0E0E0"/>
<path d="M148.467 225.859C147.365 225.207 145.774 224.888 143.525 225.142C142.883 225.218 142.245 225.326 141.614 225.468C138.862 226.248 136.187 227.276 133.621 228.539C132.03 229.276 130.361 230.078 128.737 230.899C124.825 232.855 121.018 234.909 118.625 236.226L119.733 236.878C122.133 235.574 125.921 233.514 129.852 231.545C131.482 230.723 133.145 229.921 134.736 229.191C137.3 227.924 139.976 226.896 142.729 226.12C143.357 225.975 143.993 225.866 144.633 225.794C146.883 225.533 148.48 225.872 149.575 226.505L148.467 225.859Z" fill="#E0E0E0"/>
<path d="M145.963 224.412C144.861 223.76 143.264 223.44 141.021 223.695C140.378 223.769 139.741 223.88 139.111 224.027C136.358 224.803 133.683 225.829 131.117 227.092C129.526 227.828 127.857 228.63 126.234 229.452C122.322 231.408 118.514 233.462 116.121 234.779L117.23 235.431C119.629 234.127 123.417 232.066 127.349 230.097C128.979 229.282 130.609 228.474 132.232 227.744C134.794 226.476 137.468 225.448 140.219 224.673C140.849 224.528 141.487 224.419 142.129 224.347C144.379 224.086 145.97 224.425 147.072 225.064L145.963 224.412Z" fill="#E0E0E0"/>
<path d="M143.44 222.984C142.345 222.332 140.747 222.013 138.498 222.273C137.858 222.346 137.222 222.454 136.594 222.599C133.84 223.374 131.164 224.402 128.6 225.67C127.01 226.4 125.34 227.202 123.717 228.024C119.805 229.98 115.997 232.034 113.598 233.351L114.713 234.003C117.112 232.699 120.9 230.638 124.825 228.669C126.462 227.854 128.118 227.052 129.709 226.316C132.275 225.052 134.95 224.024 137.702 223.245C138.332 223.1 138.97 222.991 139.613 222.919C141.862 222.665 143.453 222.997 144.555 223.636L143.44 222.984Z" fill="#E0E0E0"/>
<path d="M140.949 221.524C139.847 220.872 138.257 220.546 136.007 220.806C135.365 220.879 134.727 220.987 134.097 221.132C131.346 221.908 128.672 222.936 126.11 224.203C124.512 224.933 122.85 225.742 121.226 226.557C117.314 228.513 113.507 230.573 111.107 231.89L112.222 232.542C114.615 231.238 118.41 229.178 122.335 227.215C123.971 226.394 125.627 225.592 127.218 224.855C129.784 223.592 132.46 222.564 135.212 221.784C135.842 221.643 136.48 221.534 137.122 221.458C139.372 221.204 140.962 221.543 142.064 222.176L140.949 221.524Z" fill="#E0E0E0"/>
<path d="M134.618 219.998C133.976 220.072 133.338 220.183 132.708 220.33C129.813 220.982 124.715 223.303 119.831 225.755C115.919 227.711 112.111 229.765 109.719 231.082L108.604 230.43C111.003 229.126 114.791 227.066 118.716 225.096C123.6 222.651 128.705 220.324 131.593 219.672C132.223 219.527 132.861 219.418 133.504 219.346C135.753 219.085 137.344 219.424 138.446 220.063L139.554 220.715C138.459 220.083 136.861 219.724 134.618 219.998Z" fill="#E0E0E0"/>
<path d="M132.108 218.557C131.468 218.629 130.832 218.738 130.204 218.883C127.31 219.535 122.211 221.863 117.327 224.308C113.415 226.264 109.608 228.317 107.208 229.634L106.1 228.982C108.493 227.678 112.287 225.618 116.212 223.649C121.096 221.204 126.201 218.876 129.089 218.224C129.72 218.08 130.357 217.971 131 217.898C133.249 217.644 134.84 217.983 135.942 218.616L137.05 219.268C135.955 218.635 134.358 218.296 132.108 218.557Z" fill="#E0E0E0"/>
<path d="M129.605 217.116C128.962 217.188 128.324 217.297 127.694 217.442C124.806 218.094 119.707 220.422 114.824 222.867C110.912 224.823 107.104 226.883 104.705 228.2L103.596 227.548C105.989 226.244 109.777 224.184 113.709 222.221C118.592 219.77 123.691 217.442 126.586 216.79C127.216 216.648 127.854 216.539 128.496 216.464C130.739 216.21 132.336 216.549 133.438 217.181L134.547 217.833C133.445 217.188 131.854 216.849 129.605 217.116Z" fill="#E0E0E0"/>
<path d="M127.101 215.662C126.458 215.734 125.821 215.843 125.191 215.988C122.302 216.64 117.197 218.968 112.314 221.413C108.402 223.369 104.6 225.429 102.201 226.746L101.086 226.094C103.485 224.79 107.274 222.736 111.205 220.767C116.089 218.322 121.187 215.988 124.082 215.343C124.71 215.196 125.346 215.085 125.986 215.01C128.235 214.756 129.833 215.095 130.928 215.727L132.043 216.379C130.941 215.74 129.35 215.401 127.101 215.662Z" fill="#E0E0E0"/>
<path d="M124.597 214.215C123.955 214.287 123.317 214.396 122.687 214.541C119.792 215.193 114.693 217.52 109.81 219.972C105.898 221.928 102.09 223.982 99.6973 225.299L98.5824 224.647C100.982 223.343 104.77 221.282 108.701 219.313C113.585 216.868 118.684 214.541 121.572 213.889C122.202 213.744 122.84 213.635 123.482 213.563C125.732 213.302 127.323 213.641 128.424 214.273L129.539 214.925C128.444 214.299 126.847 213.96 124.597 214.215Z" fill="#E0E0E0"/>
<path d="M122.094 212.767C121.451 212.842 120.814 212.951 120.183 213.093C117.288 213.745 112.19 216.073 107.306 218.524C103.394 220.48 99.5865 222.534 97.1937 223.851L96.0787 223.199C98.4781 221.895 102.266 219.835 106.191 217.866C111.075 215.421 116.18 213.093 119.068 212.441C119.698 212.296 120.336 212.187 120.979 212.115C123.228 211.854 124.819 212.193 125.921 212.832L127.029 213.484C125.934 212.852 124.336 212.513 122.094 212.767Z" fill="#E0E0E0"/>
<path d="M119.583 211.32C118.943 211.394 118.307 211.505 117.679 211.652C114.785 212.304 109.686 214.632 104.802 217.077C100.89 219.033 97.0828 221.087 94.6834 222.404L93.575 221.752C95.9679 220.448 99.7625 218.387 103.688 216.418C108.571 213.973 113.67 211.646 116.565 210.994C117.195 210.849 117.832 210.74 118.475 210.668C120.724 210.407 122.315 210.746 123.417 211.385L124.525 212.037C123.43 211.405 121.833 211.065 119.583 211.32Z" fill="#E0E0E0"/>
<path d="M117.08 209.879C116.437 209.951 115.799 210.06 115.169 210.205C112.281 210.857 107.182 213.184 102.299 215.629C98.3868 217.585 94.5791 219.639 92.1798 220.963L91.0714 220.311C93.4642 219.007 97.2523 216.946 101.184 214.984C106.067 212.532 111.166 210.205 114.061 209.553C114.691 209.407 115.329 209.299 115.971 209.227C118.214 208.973 119.812 209.312 120.913 209.944L122.022 210.596C120.92 209.944 119.316 209.618 117.08 209.879Z" fill="#E0E0E0"/>
<path d="M114.576 208.431C113.933 208.504 113.296 208.612 112.666 208.757C109.777 209.409 104.672 211.737 99.7886 214.182C95.8766 216.138 92.0754 218.198 89.6761 219.515L88.5612 218.863C90.9605 217.559 94.7486 215.499 98.6802 213.536C103.564 211.085 108.662 208.757 111.557 208.105C112.186 207.964 112.821 207.855 113.461 207.779C115.71 207.525 117.308 207.864 118.403 208.496L119.518 209.148C118.416 208.51 116.825 208.17 114.576 208.431Z" fill="#E0E0E0"/>
<path d="M168.653 226.42C167.156 227.325 165.819 228.471 164.695 229.81L163.672 229.217C164.8 227.881 166.139 226.738 167.636 225.833L196.148 209.409L197.165 209.996L168.653 226.42Z" fill="#E0E0E0"/>
<path d="M168.653 226.42C167.156 227.325 165.819 228.471 164.695 229.81L163.672 229.217C164.8 227.881 166.139 226.738 167.636 225.833L196.148 209.409L197.165 209.996L168.653 226.42Z" fill="#E0E0E0"/>
<path d="M166.149 224.973C164.654 225.88 163.317 227.025 162.192 228.363L161.174 227.776C162.299 226.437 163.636 225.291 165.132 224.386L193.644 207.988L194.661 208.575L166.149 224.973Z" fill="#E0E0E0"/>
<path d="M163.652 223.532C162.154 224.435 160.815 225.578 159.688 226.916L158.671 226.329C159.797 224.991 161.133 223.846 162.628 222.938L191.14 206.521L192.157 207.108L163.652 223.532Z" fill="#E0E0E0"/>
<path d="M161.148 222.084C159.649 222.988 158.309 224.133 157.184 225.475L156.167 224.888C157.292 223.546 158.632 222.401 160.131 221.497L188.637 205.073L189.654 205.66L161.148 222.084Z" fill="#E0E0E0"/>
<path d="M158.645 220.643C157.148 221.546 155.811 222.689 154.687 224.027L153.663 223.44C154.792 222.102 156.131 220.957 157.628 220.05L186.139 203.633L187.157 204.219L158.645 220.643Z" fill="#E0E0E0"/>
<path d="M156.141 219.196C154.645 220.101 153.307 221.247 152.183 222.586L151.166 221.999C152.29 220.66 153.627 219.514 155.124 218.609L183.636 202.185L184.653 202.772L156.141 219.196Z" fill="#E0E0E0"/>
<path d="M153.644 217.768C152.146 218.673 150.806 219.819 149.68 221.158L148.663 220.572C149.788 219.234 151.125 218.088 152.62 217.181L181.132 200.757L182.149 201.351L153.644 217.768Z" fill="#E0E0E0"/>
<path d="M151.14 216.308C149.64 217.211 148.301 218.357 147.176 219.698L146.159 219.111C147.284 217.77 148.623 216.624 150.123 215.721L178.648 199.297L179.665 199.884L151.14 216.308Z" fill="#E0E0E0"/>
<path d="M148.656 214.86C147.16 215.766 145.823 216.911 144.698 218.25L143.675 217.664C144.801 216.324 146.141 215.179 147.639 214.273L176.144 197.849L177.168 198.436L148.656 214.86Z" fill="#E0E0E0"/>
<path d="M146.133 213.419C144.636 214.324 143.299 215.47 142.175 216.81L141.158 216.216C142.282 214.878 143.619 213.735 145.116 212.832L173.628 196.408L174.645 196.995L146.133 213.419Z" fill="#E0E0E0"/>
<path d="M143.636 211.972C142.137 212.877 140.798 214.022 139.671 215.362L138.654 214.775C139.778 213.436 141.116 212.29 142.612 211.385L171.124 194.948L172.141 195.535L143.636 211.972Z" fill="#E0E0E0"/>
<path d="M141.132 210.531C139.633 211.432 138.293 212.575 137.168 213.915L136.151 213.328C137.277 211.988 138.617 210.843 140.115 209.937L168.62 193.52L169.637 194.107L141.132 210.531Z" fill="#E0E0E0"/>
<path d="M138.628 209.083C137.131 209.987 135.793 211.132 134.671 212.474L133.66 211.9C134.785 210.559 136.125 209.413 137.624 208.51L166.13 192.086L167.153 192.673L138.628 209.083Z" fill="#E0E0E0"/>
<path d="M136.125 207.636C134.63 208.543 133.293 209.688 132.167 211.026L131.15 210.44C132.276 209.102 133.612 207.956 135.107 207.049L163.652 190.632L164.669 191.219L136.125 207.636Z" fill="#E0E0E0"/>
<path d="M133.66 206.195C132.16 207.098 130.821 208.244 129.696 209.585L128.679 208.999C129.803 207.659 131.14 206.513 132.636 205.608L161.148 189.184L162.165 189.771L133.66 206.195Z" fill="#E0E0E0"/>
<path d="M131.124 204.728C129.626 205.633 128.286 206.779 127.16 208.118L126.142 207.532C127.269 206.192 128.608 205.047 130.107 204.141L158.612 187.717L159.629 188.311L131.124 204.728Z" fill="#E0E0E0"/>
<path d="M128.62 203.307C127.122 204.212 125.782 205.357 124.656 206.697L123.639 206.104C124.766 204.766 126.105 203.623 127.603 202.72L156.108 186.296L157.132 186.883L128.62 203.307Z" fill="#E0E0E0"/>
<path d="M198.364 216.308L205.034 212.787L205.041 212.239L198.364 216.308Z" fill="#E6E6E6"/>
<path d="M205.041 214.749L193.918 220.963L205.041 214.345V214.749Z" fill="#E6E6E6"/>
<path opacity="0.02" d="M90.315 214.221C96.32 211.046 104.372 207.095 108.617 206.273C112.046 205.621 114.152 206.071 115.43 206.801L164.037 234.837C162.935 234.185 161.344 233.866 159.095 234.127C159.095 234.127 135.036 219.45 119.499 214.436C110.008 211.47 99.8486 211.395 90.315 214.221Z" fill="black"/>
<path d="M222.919 130.537C220.691 130.529 218.491 130.044 216.466 129.113C214.442 128.183 212.64 126.83 211.183 125.145C208.545 126.59 205.584 127.346 202.576 127.342C194.1 127.342 186.511 121.2 184.053 112.346C177.311 110.488 172.624 103.942 172.624 96.3526C172.624 87.4658 179.189 80.1243 187.307 79.8505C190.084 70.3965 198.025 64.0721 207.153 64.0721C211.73 64.083 216.157 65.698 219.665 68.6361C221.169 66.6822 223.117 65.1146 225.347 64.0631C227.577 63.0115 230.025 62.5062 232.489 62.5891C234.953 62.6719 237.362 63.3405 239.517 64.5394C241.671 65.7384 243.509 67.4332 244.878 69.4837C246.823 68.7816 248.874 68.422 250.942 68.4209C259.046 68.4209 266.329 73.9759 269.12 82.2563C275.952 83.9581 280.895 90.6932 280.895 98.3673C280.895 106.843 274.877 114.015 267.144 114.804C263.995 122.746 256.862 127.844 248.888 127.844C244.215 127.818 239.719 126.057 236.272 122.902C234.867 125.194 232.907 127.096 230.573 128.43C228.239 129.765 225.607 130.489 222.919 130.537ZM211.281 124.304C211.334 124.304 211.387 124.316 211.435 124.338C211.483 124.361 211.526 124.394 211.561 124.434C212.949 126.101 214.685 127.445 216.647 128.37C218.609 129.296 220.749 129.782 222.919 129.794C228.135 129.794 233.012 126.944 235.92 122.165C235.949 122.119 235.988 122.08 236.034 122.051C236.081 122.021 236.133 122.003 236.187 121.996C236.242 121.987 236.299 121.991 236.352 122.008C236.405 122.025 236.453 122.055 236.493 122.094C239.844 125.302 244.295 127.107 248.934 127.14C256.647 127.14 263.564 122.113 266.538 114.335C266.564 114.27 266.608 114.214 266.664 114.172C266.721 114.131 266.787 114.106 266.857 114.1C274.316 113.448 280.164 106.569 280.164 98.3803C280.164 90.9736 275.366 84.4797 268.754 82.9409C268.692 82.9292 268.634 82.9005 268.587 82.8579C268.54 82.8153 268.505 82.7606 268.487 82.6997C265.846 74.6084 258.798 69.1772 250.948 69.1772C248.874 69.1758 246.817 69.5536 244.878 70.2921C244.8 70.3202 244.716 70.322 244.637 70.2973C244.558 70.2726 244.489 70.2227 244.441 70.1552C243.143 68.1286 241.371 66.4489 239.277 65.2616C237.184 64.0743 234.833 63.4152 232.427 63.3414C230.021 63.2675 227.634 63.7812 225.472 64.8378C223.309 65.8944 221.437 67.4622 220.017 69.4054C219.988 69.4461 219.95 69.48 219.906 69.5047C219.862 69.5295 219.813 69.5445 219.763 69.5489C219.713 69.5549 219.662 69.5504 219.614 69.5358C219.566 69.5212 219.521 69.4968 219.483 69.4641C216.065 66.4906 211.69 64.8493 207.16 64.8414C198.286 64.8414 190.567 71.068 187.952 80.3395C187.93 80.4158 187.883 80.483 187.82 80.5312C187.757 80.5793 187.68 80.6058 187.6 80.6068C179.776 80.7241 173.373 87.7788 173.373 96.3787C173.373 103.714 177.937 110.019 184.457 111.714C184.521 111.729 184.58 111.761 184.627 111.807C184.674 111.853 184.708 111.911 184.725 111.975C187.033 120.587 194.381 126.605 202.589 126.605C205.562 126.6 208.483 125.823 211.065 124.349C211.131 124.312 211.206 124.296 211.281 124.304Z" fill="#885048"/>
<path d="M175.916 73.2131C175.17 73.2041 174.442 72.9775 173.823 72.5611C173.551 72.6811 173.27 72.7792 172.982 72.8545C171.877 73.1377 170.712 73.0924 169.632 72.7242C168.552 72.356 167.603 71.6808 166.901 70.7813C166.198 69.8818 165.773 68.797 165.678 67.6598C165.583 66.5226 165.821 65.3823 166.364 64.3785C165.782 63.7813 165.4 63.0177 165.271 62.1936C165.143 61.3694 165.274 60.5257 165.647 59.7795C166.019 59.0334 166.615 58.4217 167.351 58.0296C168.087 57.6374 168.927 57.4842 169.755 57.5912C170.137 56.4464 170.804 55.4175 171.693 54.601C172.582 53.7845 173.663 53.2071 174.836 52.923C176.009 52.6389 177.235 52.6573 178.399 52.9766C179.563 53.2959 180.627 53.9056 181.491 54.7484C181.594 54.7058 181.701 54.671 181.81 54.6441C182.275 54.5212 182.76 54.4912 183.236 54.5558C183.713 54.6204 184.172 54.7784 184.587 55.0206C185.003 55.2628 185.366 55.5846 185.657 55.9675C185.948 56.3504 186.161 56.787 186.283 57.2521C186.436 57.8422 186.436 58.4616 186.283 59.0516C187.157 59.1414 187.974 59.5295 188.596 60.1506C189.219 60.7718 189.608 61.5882 189.699 62.4626C189.79 63.337 189.577 64.216 189.096 64.952C188.616 65.688 187.896 66.236 187.059 66.504C186.963 67.3909 186.667 68.2444 186.192 68.9995C185.717 69.7546 185.076 70.3914 184.318 70.8616C183.559 71.3318 182.704 71.623 181.817 71.713C180.929 71.8029 180.033 71.6894 179.196 71.381C178.683 72.2268 177.863 72.8413 176.907 73.0957C176.584 73.1799 176.25 73.2193 175.916 73.2131ZM173.862 71.8113C173.94 71.8122 174.015 71.8373 174.077 71.883C174.444 72.1528 174.865 72.3389 175.312 72.4281C175.758 72.5173 176.218 72.5075 176.66 72.3993C177.103 72.2911 177.516 72.0872 177.87 71.802C178.225 71.5167 178.513 71.1571 178.713 70.7485C178.754 70.6664 178.825 70.6031 178.911 70.5716C178.997 70.5401 179.092 70.5427 179.176 70.579C179.932 70.9087 180.757 71.0512 181.58 70.9943C182.403 70.9374 183.201 70.6829 183.905 70.2523C184.608 69.8217 185.198 69.2277 185.623 68.5207C186.049 67.8137 186.297 67.0146 186.348 66.191C186.351 66.1143 186.379 66.0406 186.427 65.9807C186.475 65.9208 186.541 65.878 186.615 65.8585L186.772 66.1976L186.681 65.8455C187.477 65.6328 188.156 65.1135 188.57 64.4011C188.985 63.6888 189.1 62.8414 188.891 62.0443C188.705 61.3747 188.304 60.7853 187.748 60.3678C187.193 59.9503 186.515 59.7283 185.82 59.7362C185.76 59.7443 185.699 59.7336 185.645 59.7056C185.591 59.6776 185.548 59.6336 185.52 59.5798C185.486 59.5323 185.464 59.4771 185.456 59.4192C185.448 59.3612 185.454 59.3022 185.474 59.2472C185.706 58.6685 185.745 58.0307 185.585 57.4282C185.486 57.0548 185.314 56.7046 185.08 56.3976C184.845 56.0907 184.552 55.8329 184.218 55.6392C183.884 55.4454 183.515 55.3194 183.132 55.2684C182.749 55.2174 182.36 55.2423 181.986 55.3418C181.835 55.3832 181.687 55.4355 181.543 55.4982C181.476 55.5293 181.401 55.5384 181.328 55.5244C181.256 55.5103 181.189 55.4738 181.139 55.42C180.358 54.6041 179.376 54.0088 178.292 53.6944C177.207 53.38 176.059 53.3577 174.963 53.6296C173.867 53.9016 172.863 54.4582 172.051 55.2432C171.24 56.0281 170.65 57.0136 170.342 58.0997C170.317 58.1884 170.259 58.2642 170.18 58.3115C170.102 58.3589 170.007 58.3741 169.918 58.354C169.204 58.1978 168.459 58.2831 167.8 58.5966C167.14 58.9101 166.604 59.4339 166.274 60.0858C165.945 60.7376 165.842 61.4803 165.981 62.1972C166.12 62.9142 166.493 63.5645 167.042 64.046C167.107 64.1006 167.15 64.1769 167.164 64.2607C167.177 64.3446 167.159 64.4304 167.114 64.5024C166.567 65.3754 166.296 66.3928 166.336 67.4221C166.375 68.4514 166.724 69.445 167.336 70.2736C167.948 71.1022 168.795 71.7274 169.767 72.068C170.739 72.4085 171.791 72.4485 172.787 72.1829C173.098 72.1003 173.402 71.989 173.693 71.8504C173.745 71.8231 173.803 71.8096 173.862 71.8113Z" fill="#885048"/>
<path d="M156.63 58.3866C155.99 58.3873 155.36 58.2249 154.8 57.9146C154.239 57.6043 153.768 57.1564 153.429 56.6132C152.816 56.4441 152.264 56.1051 151.836 55.6354C151.409 55.1657 151.123 54.5844 151.012 53.9589C150.9 53.3334 150.969 52.6893 151.208 52.1009C151.448 51.5125 151.849 51.0041 152.366 50.6343C152.331 50.0383 152.455 49.4436 152.726 48.9115C152.997 48.3794 153.404 47.9289 153.907 47.6063C154.409 47.2837 154.989 47.1007 155.585 47.0759C156.182 47.0512 156.774 47.1857 157.302 47.4656C157.517 47.2583 157.758 47.0787 158.019 46.931C158.617 46.6037 159.301 46.467 159.979 46.5394C160.657 46.6118 161.297 46.8897 161.813 47.3358C162.328 47.782 162.695 48.3752 162.864 49.0358C163.033 49.6964 162.997 50.393 162.759 51.032C162.828 51.1281 162.891 51.2282 162.948 51.332C163.228 51.844 163.371 52.4204 163.361 53.0042C163.352 53.5881 163.19 54.1594 162.893 54.662C162.596 55.1646 162.173 55.5811 161.666 55.8706C161.158 56.1601 160.585 56.3127 160.001 56.3132C159.689 56.9354 159.211 57.4587 158.619 57.8248C158.027 58.1909 157.345 58.3854 156.65 58.3866H156.63ZM155.724 47.7916C155.35 47.7952 154.981 47.8777 154.641 48.0338C154.302 48.1899 153.999 48.4161 153.752 48.6974C153.506 48.9787 153.322 49.3089 153.212 49.6663C153.103 50.0237 153.07 50.4002 153.116 50.7712C153.126 50.8402 153.116 50.9107 153.085 50.9735C153.055 51.0364 153.007 51.0886 152.946 51.1233C152.499 51.3988 152.144 51.8014 151.927 52.2796C151.71 52.7577 151.64 53.2898 151.727 53.8077C151.814 54.3256 152.053 54.8059 152.414 55.1872C152.776 55.5685 153.242 55.8334 153.755 55.9481C153.804 55.9589 153.851 55.9802 153.891 56.0105C153.932 56.0409 153.965 56.0797 153.989 56.1242C154.384 56.8186 155.036 57.3301 155.804 57.5485C156.573 57.7668 157.396 57.6744 158.097 57.2912C158.687 56.9574 159.147 56.4334 159.401 55.8047C159.432 55.7347 159.483 55.6758 159.548 55.6362C159.614 55.5965 159.69 55.5779 159.766 55.583C160.282 55.6219 160.798 55.511 161.253 55.2635C161.864 54.9239 162.317 54.3566 162.512 53.6851C162.707 53.0136 162.63 52.2921 162.296 51.6775C162.221 51.5487 162.138 51.4246 162.048 51.3059C162.006 51.2545 161.98 51.1924 161.972 51.1266C161.964 51.0609 161.974 50.9942 162.002 50.9342C162.169 50.5644 162.246 50.1608 162.23 49.7556C162.213 49.3504 162.101 48.9548 161.905 48.6001C161.703 48.227 161.413 47.9088 161.06 47.6732C160.707 47.4376 160.302 47.2916 159.88 47.2479C159.458 47.2042 159.031 47.2641 158.638 47.4225C158.244 47.5809 157.895 47.8329 157.621 48.1567C157.565 48.2241 157.486 48.2681 157.399 48.2801C157.312 48.2922 157.224 48.2714 157.152 48.2219C156.725 47.9482 156.23 47.7992 155.724 47.7916Z" fill="#885048"/>
<path d="M142.371 55.7525H142.208C141.705 55.7114 141.238 55.4778 140.904 55.1005C140.73 54.8971 140.6 54.6602 140.521 54.4045C140.443 54.1489 140.418 53.8798 140.447 53.614L140.369 53.5292C140.201 53.3328 140.073 53.1051 139.994 52.8591C139.914 52.6131 139.884 52.3538 139.905 52.0961C139.926 51.8384 139.998 51.5875 140.117 51.3578C140.236 51.1282 140.399 50.9244 140.597 50.7582C140.823 50.5644 141.091 50.4259 141.38 50.354C141.502 49.968 141.727 49.623 142.032 49.3564C142.448 49.0027 142.982 48.8185 143.528 48.8402C144.074 48.862 144.592 49.0881 144.979 49.4738C145.481 49.5149 145.948 49.7485 146.283 50.1258C146.586 50.4801 146.752 50.9309 146.752 51.3972C146.752 51.8634 146.586 52.3143 146.283 52.6686C146.359 53.0172 146.339 53.38 146.224 53.7179C146.109 54.0558 145.904 54.3558 145.631 54.5854C145.398 54.7845 145.121 54.926 144.823 54.9985C144.525 55.0709 144.214 55.0724 143.916 55.0027C143.833 55.11 143.739 55.2083 143.636 55.2961C143.281 55.593 142.833 55.7547 142.371 55.7525ZM143.44 49.552C143.096 49.5508 142.762 49.6734 142.501 49.8976C142.248 50.1098 142.076 50.4019 142.012 50.7256C142 50.8004 141.963 50.8691 141.907 50.9209C141.852 50.9728 141.781 51.0049 141.706 51.0125C141.466 51.0457 141.24 51.1451 141.054 51.2994C140.803 51.514 140.648 51.8192 140.623 52.148C140.597 52.4768 140.703 52.8024 140.917 53.0532C140.959 53.1078 141.008 53.1581 141.06 53.2032C141.111 53.2453 141.149 53.3003 141.171 53.3622C141.192 53.4242 141.197 53.4909 141.184 53.5553C141.141 53.7415 141.142 53.9353 141.187 54.121C141.232 54.3068 141.321 54.4793 141.445 54.6246C141.657 54.8736 141.96 55.0284 142.286 55.0553C142.612 55.0822 142.935 54.9789 143.186 54.768C143.298 54.6697 143.393 54.5528 143.466 54.4224C143.507 54.3452 143.575 54.2862 143.657 54.2572C143.739 54.2282 143.829 54.2313 143.909 54.266C144.12 54.347 144.348 54.3704 144.57 54.3338C144.793 54.2971 145.001 54.2016 145.174 54.0573C145.366 53.895 145.504 53.6787 145.57 53.4367C145.636 53.1947 145.628 52.9383 145.546 52.7012C145.524 52.6354 145.521 52.5647 145.539 52.4976C145.556 52.4305 145.593 52.3698 145.644 52.323C145.822 52.1531 145.945 51.9343 145.999 51.6943C146.052 51.4543 146.034 51.2038 145.945 50.9744C145.856 50.7449 145.702 50.5469 145.501 50.4051C145.3 50.2634 145.062 50.1843 144.816 50.1779C144.714 50.1724 144.618 50.128 144.548 50.054C144.411 49.8949 144.241 49.7676 144.05 49.6809C143.858 49.5942 143.65 49.5502 143.44 49.552Z" fill="#885048"/>
</svg>
