<svg width="431" height="412" viewBox="0 0 431 412" fill="none" xmlns="http://www.w3.org/2000/svg">
<path d="M283.598 28.4939C283.598 28.4939 216.879 5.81743 151.393 41.9251C85.9069 78.0328 52.8406 149.696 24.4636 207.104C-3.91348 264.512 12.3956 322.917 62.3916 349.541C112.388 376.164 146.376 336.917 216.509 335.005C286.641 333.094 305.527 342.677 363.764 304.806C422.001 266.935 432.474 177.49 386.572 111.314C340.671 45.1387 283.598 28.4939 283.598 28.4939Z" fill="#FFC100"/>
<path opacity="0.7" d="M283.598 28.4939C283.598 28.4939 216.879 5.81743 151.393 41.9251C85.9069 78.0328 52.8406 149.696 24.4636 207.104C-3.91348 264.512 12.3956 322.917 62.3916 349.541C112.388 376.164 146.376 336.917 216.509 335.005C286.641 333.094 305.527 342.677 363.764 304.806C422.001 266.935 432.474 177.49 386.572 111.314C340.671 45.1387 283.598 28.4939 283.598 28.4939Z" fill="white"/>
<path d="M139.644 21.424V379.864" stroke="#676F74" stroke-linecap="round" stroke-linejoin="round"/>
<path d="M182.744 21.424V379.864" stroke="#676F74" stroke-linecap="round" stroke-linejoin="round"/>
<path d="M209.466 21.424V379.864" stroke="#676F74" stroke-linecap="round" stroke-linejoin="round"/>
<path d="M399.106 81.576H247.394V380.688H399.106V81.576Z" stroke="#676F74" stroke-linecap="round" stroke-linejoin="round"/>
<path d="M406.045 81.576H398.856V380.688H406.045V81.576Z" fill="#263238" stroke="#676F74" stroke-linecap="round" stroke-linejoin="round"/>
<path d="M398.977 109.361H247.558V113.349H398.977V109.361Z" stroke="#676F74" stroke-linecap="round" stroke-linejoin="round"/>
<path d="M247.851 117.997H398.244" stroke="#676F74" stroke-linecap="round" stroke-linejoin="round"/>
<path d="M269.806 83.7431H250.842V109.287H269.806V83.7431Z" stroke="#676F74" stroke-linecap="round" stroke-linejoin="round"/>
<path d="M271.814 83.7431H269.806V109.287H271.814V83.7431Z" stroke="#676F74" stroke-linecap="round" stroke-linejoin="round"/>
<path d="M293.08 83.7431H274.116V109.287H293.08V83.7431Z" stroke="#676F74" stroke-linecap="round" stroke-linejoin="round"/>
<path d="M295.088 83.7431H293.08V109.287H295.088V83.7431Z" stroke="#676F74" stroke-linecap="round" stroke-linejoin="round"/>
<path d="M314.733 88.2998H299.148V109.295H314.733V88.2998Z" stroke="#676F74" stroke-linecap="round" stroke-linejoin="round"/>
<path d="M316.388 88.2998H314.733V109.295H316.388V88.2998Z" stroke="#676F74" stroke-linecap="round" stroke-linejoin="round"/>
<path d="M339.628 83.7431H320.664V109.287H339.628V83.7431Z" stroke="#676F74" stroke-linecap="round" stroke-linejoin="round"/>
<path d="M341.636 83.7431H339.628V109.287H341.636V83.7431Z" stroke="#676F74" stroke-linecap="round" stroke-linejoin="round"/>
<path d="M363.255 88.2998H347.67V109.295H363.255V88.2998Z" stroke="#676F74" stroke-linecap="round" stroke-linejoin="round"/>
<path d="M364.919 88.2998H363.264V109.295H364.919V88.2998Z" stroke="#676F74" stroke-linecap="round" stroke-linejoin="round"/>
<path d="M386.529 88.2998H370.944V109.295H386.529V88.2998Z" stroke="#676F74" stroke-linecap="round" stroke-linejoin="round"/>
<path d="M388.193 88.2998H386.538V109.295H388.193V88.2998Z" stroke="#676F74" stroke-linecap="round" stroke-linejoin="round"/>
<path d="M398.977 152.209H247.558V156.197H398.977V152.209Z" stroke="#676F74" stroke-linecap="round" stroke-linejoin="round"/>
<path d="M247.851 160.845H398.244" stroke="#676F74" stroke-linecap="round" stroke-linejoin="round"/>
<path d="M269.642 124.506H249.127V152.135H269.642V124.506Z" stroke="#676F74" stroke-linecap="round" stroke-linejoin="round"/>
<path d="M271.814 124.506H269.642V152.135H271.814V124.506Z" stroke="#676F74" stroke-linecap="round" stroke-linejoin="round"/>
<path d="M293.08 126.591H274.116V152.135H293.08V126.591Z" stroke="#676F74" stroke-linecap="round" stroke-linejoin="round"/>
<path d="M295.088 126.591H293.08V152.135H295.088V126.591Z" stroke="#676F74" stroke-linecap="round" stroke-linejoin="round"/>
<path d="M316.354 126.591H297.39V152.135H316.354V126.591Z" stroke="#676F74" stroke-linecap="round" stroke-linejoin="round"/>
<path d="M318.362 126.591H316.354V152.135H318.362V126.591Z" stroke="#676F74" stroke-linecap="round" stroke-linejoin="round"/>
<path d="M339.352 126.97H320.664V152.143H339.352V126.97Z" stroke="#676F74" stroke-linecap="round" stroke-linejoin="round"/>
<path d="M341.335 126.97H339.352V152.143H341.335V126.97Z" stroke="#676F74" stroke-linecap="round" stroke-linejoin="round"/>
<path d="M363.117 129.319H346.179V152.135H363.117V129.319Z" stroke="#676F74" stroke-linecap="round" stroke-linejoin="round"/>
<path d="M364.91 129.319H363.117V152.135H364.91V129.319Z" stroke="#676F74" stroke-linecap="round" stroke-linejoin="round"/>
<path d="M390.003 121.433H367.212V152.135H390.003V121.433Z" stroke="#676F74" stroke-linecap="round" stroke-linejoin="round"/>
<path d="M392.417 121.433H390.003V152.135H392.417V121.433Z" stroke="#676F74" stroke-linecap="round" stroke-linejoin="round"/>
<path d="M398.977 195.057H247.558V199.045H398.977V195.057Z" stroke="#676F74" stroke-linecap="round" stroke-linejoin="round"/>
<path d="M247.851 203.693H398.244" stroke="#676F74" stroke-linecap="round" stroke-linejoin="round"/>
<path d="M269.806 169.439H250.842V194.983H269.806V169.439Z" stroke="#676F74" stroke-linecap="round" stroke-linejoin="round"/>
<path d="M271.814 169.439H269.806V194.983H271.814V169.439Z" stroke="#676F74" stroke-linecap="round" stroke-linejoin="round"/>
<path d="M293.08 169.439H274.116V194.983H293.08V169.439Z" stroke="#676F74" stroke-linecap="round" stroke-linejoin="round"/>
<path d="M295.088 169.439H293.08V194.983H295.088V169.439Z" stroke="#676F74" stroke-linecap="round" stroke-linejoin="round"/>
<path d="M316.354 169.439H297.39V194.983H316.354V169.439Z" stroke="#676F74" stroke-linecap="round" stroke-linejoin="round"/>
<path d="M318.362 169.439H316.354V194.983H318.362V169.439Z" stroke="#676F74" stroke-linecap="round" stroke-linejoin="round"/>
<path d="M339.835 172.084H322.828V194.991H339.835V172.084Z" stroke="#676F74" stroke-linecap="round" stroke-linejoin="round"/>
<path d="M341.636 172.084H339.835V194.991H341.636V172.084Z" stroke="#676F74" stroke-linecap="round" stroke-linejoin="round"/>
<path d="M362.902 169.439H343.938V194.983H362.902V169.439Z" stroke="#676F74" stroke-linecap="round" stroke-linejoin="round"/>
<path d="M364.91 169.439H362.902V194.983H364.91V169.439Z" stroke="#676F74" stroke-linecap="round" stroke-linejoin="round"/>
<path d="M386.176 169.439H367.212V194.983H386.176V169.439Z" stroke="#676F74" stroke-linecap="round" stroke-linejoin="round"/>
<path d="M388.184 169.439H386.176V194.983H388.184V169.439Z" stroke="#676F74" stroke-linecap="round" stroke-linejoin="round"/>
<path d="M398.977 237.905H247.558V241.893H398.977V237.905Z" stroke="#676F74" stroke-linecap="round" stroke-linejoin="round"/>
<path d="M247.851 246.541H398.244" stroke="#676F74" stroke-linecap="round" stroke-linejoin="round"/>
<path d="M269.806 212.287H250.842V237.831H269.806V212.287Z" stroke="#676F74" stroke-linecap="round" stroke-linejoin="round"/>
<path d="M271.814 212.287H269.806V237.831H271.814V212.287Z" stroke="#676F74" stroke-linecap="round" stroke-linejoin="round"/>
<path d="M293.08 212.287H274.116V237.831H293.08V212.287Z" stroke="#676F74" stroke-linecap="round" stroke-linejoin="round"/>
<path d="M295.088 212.287H293.08V237.831H295.088V212.287Z" stroke="#676F74" stroke-linecap="round" stroke-linejoin="round"/>
<path d="M316.354 212.287H297.39V237.831H316.354V212.287Z" stroke="#676F74" stroke-linecap="round" stroke-linejoin="round"/>
<path d="M318.362 212.287H316.354V237.831H318.362V212.287Z" stroke="#676F74" stroke-linecap="round" stroke-linejoin="round"/>
<path d="M339.628 212.287H320.664V237.831H339.628V212.287Z" stroke="#676F74" stroke-linecap="round" stroke-linejoin="round"/>
<path d="M341.636 212.287H339.628V237.831H341.636V212.287Z" stroke="#676F74" stroke-linecap="round" stroke-linejoin="round"/>
<path d="M362.902 212.287H343.938V237.831H362.902V212.287Z" stroke="#676F74" stroke-linecap="round" stroke-linejoin="round"/>
<path d="M364.91 212.287H362.902V237.831H364.91V212.287Z" stroke="#676F74" stroke-linecap="round" stroke-linejoin="round"/>
<path d="M386.176 212.287H367.212V237.831H386.176V212.287Z" stroke="#676F74" stroke-linecap="round" stroke-linejoin="round"/>
<path d="M388.184 212.287H386.176V237.831H388.184V212.287Z" stroke="#676F74" stroke-linecap="round" stroke-linejoin="round"/>
<path d="M398.977 280.753H247.558V284.741H398.977V280.753Z" stroke="#676F74" stroke-linecap="round" stroke-linejoin="round"/>
<path d="M247.851 289.389H398.244" stroke="#676F74" stroke-linecap="round" stroke-linejoin="round"/>
<path d="M269.806 255.135H250.842V280.679H269.806V255.135Z" stroke="#676F74" stroke-linecap="round" stroke-linejoin="round"/>
<path d="M271.814 255.135H269.806V280.679H271.814V255.135Z" stroke="#676F74" stroke-linecap="round" stroke-linejoin="round"/>
<path d="M293.08 255.135H274.116V280.679H293.08V255.135Z" stroke="#676F74" stroke-linecap="round" stroke-linejoin="round"/>
<path d="M295.088 255.135H293.08V280.679H295.088V255.135Z" stroke="#676F74" stroke-linecap="round" stroke-linejoin="round"/>
<path d="M316.354 255.135H297.39V280.679H316.354V255.135Z" stroke="#676F74" stroke-linecap="round" stroke-linejoin="round"/>
<path d="M318.362 255.135H316.354V280.679H318.362V255.135Z" stroke="#676F74" stroke-linecap="round" stroke-linejoin="round"/>
<path d="M339.628 255.135H320.664V280.679H339.628V255.135Z" stroke="#676F74" stroke-linecap="round" stroke-linejoin="round"/>
<path d="M341.636 255.135H339.628V280.679H341.636V255.135Z" stroke="#676F74" stroke-linecap="round" stroke-linejoin="round"/>
<path d="M362.902 255.135H343.938V280.679H362.902V255.135Z" stroke="#676F74" stroke-linecap="round" stroke-linejoin="round"/>
<path d="M364.91 255.135H362.902V280.679H364.91V255.135Z" stroke="#676F74" stroke-linecap="round" stroke-linejoin="round"/>
<path d="M386.176 255.135H367.212V280.679H386.176V255.135Z" stroke="#676F74" stroke-linecap="round" stroke-linejoin="round"/>
<path d="M388.184 255.135H386.176V280.679H388.184V255.135Z" stroke="#676F74" stroke-linecap="round" stroke-linejoin="round"/>
<path d="M398.977 323.601H247.558V327.589H398.977V323.601Z" stroke="#676F74" stroke-linecap="round" stroke-linejoin="round"/>
<path d="M247.851 332.237H398.244" stroke="#676F74" stroke-linecap="round" stroke-linejoin="round"/>
<path d="M269.806 297.983H250.842V323.527H269.806V297.983Z" stroke="#676F74" stroke-linecap="round" stroke-linejoin="round"/>
<path d="M271.814 297.983H269.806V323.527H271.814V297.983Z" stroke="#676F74" stroke-linecap="round" stroke-linejoin="round"/>
<path d="M293.08 297.983H274.116V323.527H293.08V297.983Z" stroke="#676F74" stroke-linecap="round" stroke-linejoin="round"/>
<path d="M295.088 297.983H293.08V323.527H295.088V297.983Z" stroke="#676F74" stroke-linecap="round" stroke-linejoin="round"/>
<path d="M316.354 297.983H297.39V323.527H316.354V297.983Z" stroke="#676F74" stroke-linecap="round" stroke-linejoin="round"/>
<path d="M318.362 297.983H316.354V323.527H318.362V297.983Z" stroke="#676F74" stroke-linecap="round" stroke-linejoin="round"/>
<path d="M339.628 297.983H320.664V323.527H339.628V297.983Z" stroke="#676F74" stroke-linecap="round" stroke-linejoin="round"/>
<path d="M341.636 297.983H339.628V323.527H341.636V297.983Z" stroke="#676F74" stroke-linecap="round" stroke-linejoin="round"/>
<path d="M362.902 297.983H343.938V323.527H362.902V297.983Z" stroke="#676F74" stroke-linecap="round" stroke-linejoin="round"/>
<path d="M364.91 297.983H362.902V323.527H364.91V297.983Z" stroke="#676F74" stroke-linecap="round" stroke-linejoin="round"/>
<path d="M386.176 297.983H367.212V323.527H386.176V297.983Z" stroke="#676F74" stroke-linecap="round" stroke-linejoin="round"/>
<path d="M388.184 297.983H386.176V323.527H388.184V297.983Z" stroke="#676F74" stroke-linecap="round" stroke-linejoin="round"/>
<path d="M398.977 366.449H247.558V370.437H398.977V366.449Z" stroke="#676F74" stroke-linecap="round" stroke-linejoin="round"/>
<path d="M247.851 375.085H398.244" stroke="#676F74" stroke-linecap="round" stroke-linejoin="round"/>
<path d="M269.806 340.831H250.842V366.375H269.806V340.831Z" stroke="#676F74" stroke-linecap="round" stroke-linejoin="round"/>
<path d="M271.814 340.831H269.806V366.375H271.814V340.831Z" stroke="#676F74" stroke-linecap="round" stroke-linejoin="round"/>
<path d="M293.08 340.831H274.116V366.375H293.08V340.831Z" stroke="#676F74" stroke-linecap="round" stroke-linejoin="round"/>
<path d="M295.088 340.831H293.08V366.375H295.088V340.831Z" stroke="#676F74" stroke-linecap="round" stroke-linejoin="round"/>
<path d="M316.354 340.831H297.39V366.375H316.354V340.831Z" stroke="#676F74" stroke-linecap="round" stroke-linejoin="round"/>
<path d="M318.362 340.831H316.354V366.375H318.362V340.831Z" stroke="#676F74" stroke-linecap="round" stroke-linejoin="round"/>
<path d="M339.628 340.831H320.664V366.375H339.628V340.831Z" stroke="#676F74" stroke-linecap="round" stroke-linejoin="round"/>
<path d="M341.636 340.831H339.628V366.375H341.636V340.831Z" stroke="#676F74" stroke-linecap="round" stroke-linejoin="round"/>
<path d="M362.902 340.831H343.938V366.375H362.902V340.831Z" stroke="#676F74" stroke-linecap="round" stroke-linejoin="round"/>
<path d="M364.91 340.831H362.902V366.375H364.91V340.831Z" stroke="#676F74" stroke-linecap="round" stroke-linejoin="round"/>
<path d="M386.176 340.831H367.212V366.375H386.176V340.831Z" stroke="#676F74" stroke-linecap="round" stroke-linejoin="round"/>
<path d="M388.184 340.831H386.176V366.375H388.184V340.831Z" stroke="#676F74" stroke-linecap="round" stroke-linejoin="round"/>
<path d="M167.331 168.92H155.057V221.104H167.331V168.92Z" fill="#263238" stroke="#263238" stroke-linecap="round" stroke-linejoin="round"/>
<path d="M197.691 148.048H124.706V200.232H197.691V148.048Z" fill="#263238" stroke="#263238" stroke-linecap="round" stroke-linejoin="round"/>
<path d="M192.123 152.02H130.265V196.252H192.123V152.02Z" fill="#E5E5E5" stroke="#263238" stroke-linecap="round" stroke-linejoin="round"/>
<path d="M239.877 370.083L238.886 380.688H198.2C198.2 380.688 197.217 376.444 199.432 374.796C201.648 373.148 209.776 371.731 211.5 371.261C213.224 370.792 216.672 368.196 216.672 368.196L239.877 370.083Z" fill="#263238" stroke="#263238" stroke-linecap="round" stroke-linejoin="round"/>
<path d="M239.102 378.265L238.886 380.688H198.2C198.039 379.901 197.97 379.1 197.993 378.298C209.656 378.257 231.697 378.216 239.102 378.265Z" fill="#919191" stroke="#263238" stroke-linecap="round" stroke-linejoin="round"/>
<path d="M239.636 259.305C239.636 259.305 238.403 287.115 238.403 294.423C238.403 301.732 244.567 315.402 244.817 323.412C245.067 331.421 240.619 365.37 240.619 365.37L222.129 365.131C222.129 365.131 220.672 351.024 220.146 337.56C219.62 324.096 213.983 291.597 212.75 280.753C211.518 269.909 208.802 258.357 208.802 258.357L239.636 259.305Z" fill="#263238" stroke="#263238" stroke-linecap="round" stroke-linejoin="round"/>
<path d="M242.834 363.013L241.351 370.792L222.12 369.844V361.126L242.834 363.013Z" fill="#919191" stroke="#263238" stroke-linecap="round" stroke-linejoin="round"/>
<path d="M244.808 240.682C244.808 240.682 242.584 251.287 241.601 256C240.619 260.714 235.679 273.214 235.438 278.627C235.197 284.041 233.214 304.559 233.214 315.872C233.214 327.186 232.723 330.012 230.257 339.678C227.792 349.343 225.327 364.9 225.327 364.9C221.614 364.986 217.901 364.749 214.233 364.192C210.237 363.626 206.389 362.346 202.889 360.418L202.639 355.943C202.639 355.943 201.406 349.574 200.915 347.703C200.424 345.833 203.872 337.329 203.872 336.39C203.872 335.45 201.165 332.377 200.174 327.664C199.182 322.95 195.734 295.14 195.734 291.127C195.734 287.115 194.26 259.313 194.26 259.313C194.26 259.313 191.295 241.399 191.295 239.273C191.295 237.147 231.49 236.916 238.145 236.447C244.799 235.977 247.023 237.147 244.808 240.682Z" fill="#919191" stroke="#263238" stroke-linecap="round" stroke-linejoin="round"/>
<path d="M210.328 245.865C210.328 245.865 215.75 254.352 222.163 256.948" stroke="#263238" stroke-linecap="round" stroke-linejoin="round"/>
<path d="M219.551 277.227L219.164 279.105" stroke="#263238" stroke-linecap="round" stroke-linejoin="round"/>
<path d="M225.818 246.813L220.241 273.889" stroke="#263238" stroke-linecap="round" stroke-linejoin="round"/>
<path d="M231.016 280.284C227.256 280.796 223.469 281.109 219.672 281.223H204.613L204.372 286.406C208.511 287.169 212.726 287.486 216.94 287.354C221.661 287.129 226.36 286.578 230.999 285.706L231.016 280.284Z" stroke="#263238" stroke-linecap="round" stroke-linejoin="round"/>
<path d="M231.016 285.706C231.016 285.706 230.525 294.893 230.766 301.732C231.007 308.572 228.059 309.742 224.853 309.742C221.646 309.742 207.345 311.39 205.372 309.981C203.398 308.572 202.656 304.798 203.398 301.741C204.139 298.684 204.389 286.414 204.389 286.414" stroke="#263238" stroke-linecap="round" stroke-linejoin="round"/>
<path d="M223.844 372.448L223.103 380.688H182.425C182.425 380.688 181.434 376.444 183.658 374.796C185.882 373.148 194.002 371.731 195.726 371.261C197.45 370.792 200.898 368.196 200.898 368.196L223.844 372.448Z" fill="#263238" stroke="#263238" stroke-linecap="round" stroke-linejoin="round"/>
<path d="M223.327 378.265L223.103 380.688H182.425C182.259 379.902 182.187 379.1 182.21 378.298C193.872 378.257 215.914 378.216 223.327 378.265Z" fill="white" stroke="#263238" stroke-linecap="round" stroke-linejoin="round"/>
<path d="M228.042 361.835C228.042 361.835 227.542 372.679 225.568 373.148C223.594 373.618 198.45 369.613 198.2 367.726C197.95 365.84 200.424 362.305 200.665 361.134C200.906 359.964 200.915 358.069 201.898 356.66C202.88 355.251 221.629 359.478 228.042 361.835Z" fill="white" stroke="#263238" stroke-linecap="round" stroke-linejoin="round"/>
<path d="M126.3 215.394C126.3 215.394 122.318 216.366 121.214 217.256C120.111 218.146 118.628 220.494 119.103 221.458C119.577 222.422 120.456 222.027 120.827 221.541C121.78 220.136 122.985 218.903 124.387 217.899C125.885 217.047 127.44 216.29 129.041 215.633C128.195 215.214 127.212 215.129 126.3 215.394Z" fill="#E5E5E5" stroke="#263238" stroke-linecap="round" stroke-linejoin="round"/>
<path d="M198.476 158.093L181.322 195.799C181.322 195.799 175.607 197.991 164.168 202.086C152.729 206.181 140.73 211.381 137.868 212.196C135.006 213.012 128.154 214.38 124.723 216.316C121.292 218.253 118.335 222.175 120.62 222.447C121.421 222.546 121.482 223.337 123.499 223.098C124.315 222.929 125.074 222.566 125.705 222.043C127.221 220.956 128.917 220.121 130.722 219.571C133.2 218.949 135.784 218.817 138.317 219.184C139.46 219.339 140.621 219.339 141.765 219.184C143.107 218.32 144.381 217.361 145.575 216.316C145.575 216.316 165.582 214.668 173.59 213.309C181.598 211.949 193.597 208.118 193.597 208.118L206.466 158.381L198.476 158.093Z" fill="white" stroke="#263238" stroke-linecap="round" stroke-linejoin="round"/>
<path d="M130.438 216.3C130.438 216.3 122.145 219.027 121.576 222.307" stroke="#263238" stroke-linecap="round" stroke-linejoin="round"/>
<path d="M145.592 216.3C144.377 217.439 143.032 218.445 141.584 219.299C139.584 220.395 137.015 219.851 135.015 220.947C133.015 222.043 132.429 222.859 130.153 222.595C127.878 222.332 127.86 220.412 130.722 219.596C132.015 219.288 133.263 218.828 134.438 218.228L136.162 216.316" fill="white"/>
<path d="M145.592 216.3C144.377 217.439 143.032 218.445 141.584 219.299C139.584 220.395 137.015 219.851 135.015 220.947C133.015 222.043 132.429 222.859 130.153 222.595C127.878 222.332 127.86 220.412 130.722 219.596C132.015 219.288 133.263 218.828 134.438 218.228L136.162 216.316" stroke="#263238" stroke-linecap="round" stroke-linejoin="round"/>
<path d="M158.134 171.903L100.751 172.991L92.8029 221.252L163.246 221.796L158.134 171.903Z" fill="#FFC100" stroke="#263238" stroke-linecap="round" stroke-linejoin="round"/>
<path d="M151.333 221.252L153.6 171.903L124.128 205.176L100.751 172.991" stroke="#263238" stroke-linecap="round" stroke-linejoin="round"/>
<path d="M230.507 129.195C230.507 129.195 235.188 130.843 242.093 136.974C248.997 143.104 254.419 159.131 255.161 167.618C255.902 176.105 250.48 202.028 250.48 208.39C250.48 214.751 248.506 242.099 247.515 242.808C246.523 243.517 215.466 245.865 201.656 245.165C187.847 244.464 187.106 239.265 185.632 234.321C184.158 229.377 183.158 216.407 185.382 201.559C187.606 186.71 190.312 167.379 196.476 157.483C202.639 147.587 206.82 142.395 211.992 137.913C217.164 133.43 226.809 128.725 230.507 129.195Z" fill="#263238" stroke="#263238" stroke-linecap="round" stroke-linejoin="round"/>
<path d="M221.293 182.071L209.544 181.354V162.476L221.293 163.193V182.071Z" fill="#FFC100"/>
<path d="M216.793 159.848H214.543V165.583H216.793V159.848Z" fill="white" stroke="#263238" stroke-linecap="round" stroke-linejoin="round"/>
<path d="M218.793 178.083L212.043 177.457V167.659L218.793 168.286V178.083Z" fill="white"/>
<path d="M221.387 158.496L239.257 196.483L206.69 211.166C206.69 211.166 188.106 211.265 186.657 211.026C185.209 210.787 172.452 218.442 171.805 219.102C171.718 219.19 171.651 219.295 171.607 219.409C171.564 219.524 171.544 219.645 171.551 219.767C171.557 219.888 171.589 220.007 171.645 220.116C171.7 220.226 171.778 220.324 171.874 220.404C171.874 220.404 170.262 221.854 171.391 222.686L172.512 223.51C172.512 223.51 172.391 224.202 174.029 225.051C175.667 225.9 176.417 225.512 176.417 225.512C177.496 225.292 178.554 224.986 179.58 224.598C180.951 224.037 185.115 220.857 185.839 220.98C186.563 221.104 194.674 222.216 197.907 222.101C201.139 221.986 203.63 218.962 203.63 218.962C203.63 218.962 231.602 218.624 241.17 216.185C250.739 213.746 262.626 207.187 264.781 204.748C266.936 202.308 259.315 170.593 256.6 163.63C253.885 156.667 249.618 149.177 248.403 148.048" fill="#263238"/>
<path d="M221.387 158.496L239.257 196.483L206.69 211.166C206.69 211.166 188.106 211.265 186.657 211.026C185.209 210.787 172.452 218.442 171.805 219.102C171.718 219.19 171.651 219.295 171.607 219.409C171.564 219.524 171.544 219.645 171.551 219.767C171.557 219.888 171.589 220.007 171.645 220.116C171.7 220.226 171.778 220.324 171.874 220.404C171.874 220.404 170.262 221.854 171.391 222.686L172.512 223.51C172.512 223.51 172.391 224.202 174.029 225.051C175.667 225.9 176.417 225.512 176.417 225.512C177.496 225.292 178.554 224.986 179.58 224.598C180.951 224.037 185.115 220.857 185.839 220.98C186.563 221.104 194.674 222.216 197.907 222.101C201.139 221.986 203.63 218.962 203.63 218.962C203.63 218.962 231.602 218.624 241.17 216.185C250.739 213.746 262.626 207.187 264.781 204.748C266.936 202.308 259.315 170.593 256.6 163.63C253.885 156.667 249.618 149.177 248.403 148.048" stroke="#263238" stroke-linecap="round" stroke-linejoin="round"/>
<path d="M176.417 225.512C176.417 225.512 175.676 225.891 174.029 225.051C172.383 224.21 172.512 223.51 172.512 223.51L171.391 222.686C170.262 221.862 171.874 220.404 171.874 220.404C171.778 220.324 171.7 220.226 171.645 220.116C171.589 220.007 171.557 219.888 171.551 219.767C171.544 219.645 171.564 219.524 171.607 219.409C171.651 219.295 171.718 219.19 171.805 219.102C172.452 218.426 185.201 210.787 186.657 211.026C188.114 211.265 206.69 211.166 206.69 211.166L239.257 196.483L231.74 180.497L258.462 169.472C261.755 181.049 266.565 202.753 264.789 204.748C262.634 207.22 250.747 213.746 241.179 216.185C231.611 218.624 203.639 218.962 203.639 218.962C203.639 218.962 201.148 221.986 197.915 222.101C194.683 222.216 186.563 221.096 185.847 220.98C185.132 220.865 180.96 224.037 179.58 224.598C178.555 224.987 177.496 225.293 176.417 225.512Z" fill="white" stroke="#263238" stroke-linecap="round" stroke-linejoin="round"/>
<path d="M171.874 220.404L182.029 215.105" stroke="#263238" stroke-linecap="round" stroke-linejoin="round"/>
<path d="M172.822 223.213L182.356 217.124" stroke="#263238" stroke-linecap="round" stroke-linejoin="round"/>
<path d="M175.245 225.479C175.189 225.367 175.158 225.246 175.154 225.122C175.149 224.998 175.171 224.874 175.217 224.759C175.264 224.643 175.335 224.538 175.426 224.449C175.516 224.361 175.625 224.291 175.745 224.243C176.607 223.864 183.597 219.069 183.597 219.069" stroke="#263238" stroke-linecap="round" stroke-linejoin="round"/>
<path d="M204.458 135.276L208.604 138.308C208.604 138.308 201.044 152.316 204.458 153C207.871 153.684 219.586 138.778 223.973 133.875C228.361 128.972 230.507 129.195 230.507 129.195C230.507 129.195 225.198 123.427 223.241 118.953C221.284 114.478 220.319 111.726 220.319 111.726L204.458 135.276Z" fill="white" stroke="#263238" stroke-linecap="round" stroke-linejoin="round"/>
<path d="M190.45 99.0036C190.45 99.0036 190.037 117.404 190.58 120.65C191.123 123.897 195.821 132.911 197.605 134.856C199.389 136.8 206.69 137.081 209.345 135.564C212 134.048 218.758 125.8 219.957 122.554C220.682 120.61 221.126 118.581 221.275 116.522C221.275 116.522 225.516 117.544 227.913 112.731C230.309 107.919 227.913 104.112 224.758 104.318L222.06 105.563C222.06 105.563 225.758 96.3915 223.43 92.8566C221.103 89.3216 200.458 91.085 196.208 91.7277C191.959 92.3704 190.45 99.0036 190.45 99.0036Z" fill="white" stroke="#263238" stroke-linecap="round" stroke-linejoin="round"/>
<path d="M205.777 109.592C205.777 109.592 208.664 107.524 211.543 109.131" stroke="#263238" stroke-linecap="round" stroke-linejoin="round"/>
<path d="M191.838 108.208C191.838 108.208 195.441 107.293 196.148 109.856" stroke="#263238" stroke-linecap="round" stroke-linejoin="round"/>
<path d="M195.019 109.312C195.019 109.55 194.945 109.782 194.807 109.98C194.668 110.178 194.472 110.332 194.242 110.423C194.012 110.514 193.759 110.538 193.515 110.492C193.271 110.445 193.046 110.331 192.87 110.163C192.694 109.994 192.575 109.78 192.526 109.547C192.477 109.313 192.502 109.071 192.598 108.851C192.693 108.632 192.854 108.444 193.061 108.312C193.268 108.179 193.511 108.109 193.76 108.109C194.093 108.111 194.412 108.238 194.648 108.464C194.883 108.689 195.017 108.993 195.019 109.312Z" fill="#263238"/>
<path d="M209.363 110.012C209.363 110.25 209.289 110.483 209.15 110.681C209.012 110.878 208.816 111.033 208.586 111.124C208.356 111.215 208.103 111.239 207.859 111.192C207.614 111.146 207.39 111.031 207.214 110.863C207.038 110.695 206.918 110.48 206.87 110.247C206.821 110.014 206.846 109.772 206.941 109.552C207.037 109.332 207.198 109.144 207.405 109.012C207.612 108.88 207.855 108.809 208.104 108.809C208.438 108.809 208.758 108.936 208.994 109.162C209.23 109.387 209.363 109.693 209.363 110.012Z" fill="#263238"/>
<path d="M207.932 100.009L212.776 101.237C212.945 101.277 213.102 101.351 213.239 101.454C213.375 101.556 213.488 101.685 213.569 101.832C213.651 101.979 213.699 102.14 213.71 102.306C213.722 102.472 213.698 102.638 213.638 102.794L213.517 103.107C213.404 103.4 213.177 103.639 212.882 103.775C212.588 103.91 212.25 103.931 211.94 103.832L207.225 102.291C207.067 102.241 206.921 102.16 206.797 102.054C206.672 101.949 206.571 101.82 206.499 101.676C206.428 101.533 206.387 101.377 206.38 101.218C206.373 101.058 206.399 100.9 206.458 100.75C206.563 100.474 206.773 100.245 207.045 100.108C207.318 99.9712 207.634 99.9358 207.932 100.009Z" fill="#263238" stroke="#263238" stroke-linecap="round" stroke-linejoin="round"/>
<path d="M197.226 100.528V100.602C197.282 100.721 197.313 100.849 197.316 100.979C197.319 101.11 197.294 101.239 197.243 101.36C197.193 101.481 197.117 101.591 197.02 101.683C196.924 101.775 196.809 101.847 196.683 101.896L193.321 103.181C193.179 103.235 193.027 103.258 192.875 103.247C192.723 103.237 192.575 103.195 192.443 103.123C192.311 103.051 192.197 102.951 192.11 102.832C192.023 102.712 191.966 102.575 191.942 102.431C191.908 102.219 191.949 102.002 192.058 101.814C192.167 101.626 192.338 101.478 192.545 101.393L195.872 100.034C195.995 99.9802 196.127 99.9506 196.262 99.9466C196.397 99.9425 196.531 99.9641 196.657 100.01C196.783 100.056 196.898 100.126 196.996 100.215C197.093 100.303 197.171 100.41 197.226 100.528Z" fill="#263238" stroke="#263238" stroke-linecap="round" stroke-linejoin="round"/>
<path d="M209.268 117.964C209.268 117.964 207.199 122.257 201.268 121.894" stroke="#263238" stroke-linecap="round" stroke-linejoin="round"/>
<path d="M198.105 105.225C198.105 105.225 197.32 116.39 197.243 117.296C197.165 118.203 199.717 120.724 201.665 118.796C202.744 117.858 203.466 116.602 203.716 115.228" fill="white"/>
<path d="M198.105 105.225C198.105 105.225 197.32 116.39 197.243 117.296C197.165 118.203 199.717 120.724 201.665 118.796C202.744 117.858 203.466 116.602 203.716 115.228" stroke="#263238" stroke-linecap="round" stroke-linejoin="round"/>
<path d="M197.967 104.912C197.281 104.078 196.385 103.425 195.363 103.014C194.34 102.602 193.226 102.445 192.123 102.558C191.02 102.67 189.965 103.049 189.057 103.658C188.149 104.267 187.417 105.086 186.931 106.039C186.444 106.992 186.219 108.047 186.276 109.106C186.333 110.165 186.671 111.193 187.257 112.093C187.843 112.994 188.658 113.737 189.627 114.253C190.596 114.77 191.686 115.043 192.795 115.047C193.701 115.096 194.605 114.929 195.427 114.56C196.248 114.192 196.961 113.634 197.501 112.937L197.967 104.912Z" stroke="#263238" stroke-linecap="round" stroke-linejoin="round"/>
<path d="M208.638 115.047C212.257 115.047 215.19 112.243 215.19 108.784C215.19 105.326 212.257 102.522 208.638 102.522C205.02 102.522 202.087 105.326 202.087 108.784C202.087 112.243 205.02 115.047 208.638 115.047Z" stroke="#263238" stroke-linecap="round" stroke-linejoin="round"/>
<path d="M215.216 107.532L225.413 104.508" stroke="#263238" stroke-linecap="round" stroke-linejoin="round"/>
<path d="M186.339 108.084L190.218 107.392" stroke="#263238" stroke-linecap="round" stroke-linejoin="round"/>
<path d="M197.967 106.296C198.617 105.941 199.363 105.779 200.11 105.829C200.857 105.878 201.572 106.139 202.165 106.576" stroke="#263238" stroke-linecap="round" stroke-linejoin="round"/>
<path d="M222.793 82.1199C222.793 82.1199 231.344 88.0362 229.508 94.4304C227.671 100.825 222.439 113.012 222.439 113.012L221.017 113.226L220.534 108.578C220.534 108.578 215.724 107.647 215.94 103.725C216.054 101.409 216.664 99.1404 217.733 97.059C217.733 97.059 213.509 101.352 207.742 101.352C201.975 101.352 198.303 95.2874 196.683 97.7594C195.062 100.231 192.166 102.061 185.718 99.9924C179.27 97.9242 168.892 84.5012 174.727 79.4419C180.563 74.3825 192.131 80.9498 195.665 81.2464C199.2 81.5431 200.837 75.7339 208.863 76.7309C213.886 77.4517 218.659 79.2983 222.793 82.1199Z" fill="#263238" stroke="#263238" stroke-linecap="round" stroke-linejoin="round"/>
<path d="M248.601 218.986H64.0294V380.943H248.601V218.986Z" fill="white" stroke="#263238" stroke-linecap="round" stroke-linejoin="round"/>
<path d="M248.601 218.986H64.0294V229.888H248.601V218.986Z" fill="#263238" stroke="#263238" stroke-linecap="round" stroke-linejoin="round"/>
<path d="M248.601 218.986H190.2V380.943H248.601V218.986Z" stroke="#263238" stroke-linecap="round" stroke-linejoin="round"/>
<path d="M256.531 218.986H56.099V225.191H256.531V218.986Z" fill="white" stroke="#263238" stroke-linecap="round" stroke-linejoin="round"/>
<path d="M256.523 218.986H182.985V225.191H256.523V218.986Z" fill="white" stroke="#263238" stroke-linecap="round" stroke-linejoin="round"/>
<path d="M290.287 148.32C290.287 148.32 290.123 144.118 288.261 141.209C286.399 138.3 279.641 136.199 276.099 137.657C274.301 138.361 272.551 139.17 270.858 140.08C274.386 141.137 277.743 142.66 280.831 144.604C283.683 146.45 286.902 147.715 290.287 148.32Z" fill="#FFC100" stroke="#263238" stroke-linecap="round" stroke-linejoin="round"/>
<path d="M297.39 150.438C297.39 150.438 293.33 146.721 292.658 141.547C291.985 136.372 297.726 128.305 297.726 128.305C299.625 131.755 301.153 135.379 302.286 139.124C303.984 144.942 297.39 150.438 297.39 150.438Z" fill="#FFC100" stroke="#263238" stroke-linecap="round" stroke-linejoin="round"/>
<path d="M305.148 148.823C305.148 148.823 304.131 143.978 306.01 140.583C307.889 137.188 312.768 137.509 317.673 138.935C322.578 140.36 324.095 140.385 324.095 140.385C320.715 142.55 317.151 144.441 313.44 146.038C310.745 147.143 307.975 148.074 305.148 148.823Z" fill="#FFC100" stroke="#263238" stroke-linecap="round" stroke-linejoin="round"/>
<path d="M297.433 166.234C297.316 166.234 297.205 166.189 297.122 166.111C297.04 166.032 296.993 165.925 296.993 165.814V142.742C297.013 142.646 297.067 142.561 297.146 142.499C297.224 142.438 297.323 142.404 297.424 142.404C297.526 142.404 297.624 142.438 297.703 142.499C297.782 142.561 297.835 142.646 297.855 142.742V165.814C297.856 165.922 297.812 166.027 297.733 166.105C297.654 166.183 297.547 166.23 297.433 166.234Z" fill="#263238"/>
<path d="M299.467 166.234H299.398C299.285 166.217 299.182 166.159 299.113 166.071C299.044 165.983 299.013 165.873 299.028 165.764C299.114 165.187 301.157 151.501 308.087 143.895C308.125 143.853 308.172 143.819 308.223 143.795C308.275 143.77 308.331 143.755 308.389 143.752C308.446 143.748 308.504 143.755 308.559 143.772C308.614 143.79 308.665 143.818 308.708 143.854C308.752 143.89 308.787 143.934 308.813 143.984C308.839 144.033 308.854 144.087 308.858 144.142C308.862 144.197 308.855 144.252 308.836 144.305C308.818 144.357 308.789 144.406 308.751 144.447C301.984 151.863 299.916 165.739 299.898 165.871C299.882 165.97 299.83 166.061 299.752 166.127C299.673 166.193 299.572 166.231 299.467 166.234Z" fill="#263238"/>
<path d="M295.407 165.904C295.35 165.904 295.293 165.893 295.24 165.872C295.188 165.851 295.14 165.82 295.1 165.781C295.059 165.741 295.028 165.695 295.007 165.644C294.986 165.593 294.975 165.539 294.976 165.484C294.976 165.352 295.045 152.201 286.856 145.947C286.765 145.877 286.706 145.775 286.693 145.664C286.68 145.553 286.714 145.441 286.787 145.354C286.861 145.266 286.967 145.21 287.083 145.198C287.2 145.185 287.317 145.218 287.408 145.288C295.925 151.806 295.856 164.94 295.856 165.492C295.854 165.547 295.842 165.602 295.819 165.652C295.796 165.703 295.762 165.749 295.721 165.787C295.679 165.825 295.63 165.855 295.576 165.875C295.522 165.895 295.465 165.905 295.407 165.904Z" fill="#263238"/>
<path d="M302.165 165.748H302.053C301.942 165.719 301.847 165.649 301.788 165.553C301.73 165.457 301.714 165.344 301.743 165.237C302.603 162.417 303.939 159.75 305.7 157.343C305.769 157.254 305.871 157.194 305.986 157.177C306.101 157.16 306.218 157.187 306.312 157.252C306.403 157.319 306.464 157.418 306.482 157.527C306.499 157.635 306.472 157.747 306.406 157.837C304.714 160.163 303.425 162.733 302.588 165.451C302.56 165.537 302.504 165.613 302.428 165.666C302.352 165.719 302.26 165.748 302.165 165.748Z" fill="#263238"/>
<path d="M304.829 159.32C304.829 159.32 304.657 154.797 306.682 154.154C308.708 153.511 310.57 155.118 312.096 156.09C313.621 157.063 315.302 158.027 315.302 160.935C315.129 163.707 314.734 166.462 314.121 169.175C314.121 169.175 312.397 164.166 309.561 161.908C306.725 159.65 304.829 159.32 304.829 159.32Z" fill="#FFC100" stroke="#263238" stroke-linecap="round" stroke-linejoin="round"/>
<path d="M292.365 165.904C292.272 165.907 292.18 165.881 292.105 165.828C292.03 165.776 291.976 165.701 291.951 165.616C291.067 163.198 289.544 161.041 287.529 159.353C287.455 159.28 287.413 159.183 287.408 159.082C287.403 158.981 287.437 158.881 287.503 158.802C287.57 158.722 287.664 158.669 287.768 158.65C287.873 158.632 287.98 158.651 288.072 158.702C290.23 160.484 291.854 162.782 292.778 165.36C292.797 165.413 292.804 165.468 292.8 165.523C292.796 165.579 292.78 165.633 292.753 165.682C292.727 165.731 292.69 165.775 292.646 165.81C292.601 165.845 292.549 165.872 292.494 165.888C292.452 165.901 292.408 165.907 292.365 165.904Z" fill="#263238"/>
<path d="M290.287 160.779C290.287 160.779 290.968 157.87 289.279 155.769C287.589 153.668 283.529 154.121 281.521 156.412C279.512 158.702 276.616 165.476 276.616 165.476C276.616 165.476 280.676 162.41 285.408 162.41C290.141 162.41 290.287 160.779 290.287 160.779Z" fill="#FFC100" stroke="#263238" stroke-linecap="round" stroke-linejoin="round"/>
<path d="M303.76 190.674H290.27L283.529 169.348H310.501L303.76 190.674Z" fill="white" stroke="#263238" stroke-linecap="round" stroke-linejoin="round"/>
<path d="M310.579 165.814H283.451V169.348H310.579V165.814Z" fill="white" stroke="#263238" stroke-linecap="round" stroke-linejoin="round"/>
<path d="M362.6 190.492H329.724V253.99H362.6V190.492Z" fill="#263238" stroke="#263238" stroke-linecap="round" stroke-linejoin="round"/>
<path d="M333.56 190.492H235.516V253.99H333.56V190.492Z" fill="white" stroke="#263238" stroke-linecap="round" stroke-linejoin="round"/>
<path d="M328.603 194.851H240.576V249.202H328.603V194.851Z" fill="#E5E5E5" stroke="#263238" stroke-linecap="round" stroke-linejoin="round"/>
<path d="M328.603 194.851H283.917V249.202H328.603V194.851Z" fill="#E5E5E5" stroke="#263238" stroke-linecap="round" stroke-linejoin="round"/>
<path d="M328.603 220.222H240.576V223.823H328.603V220.222Z" fill="white" stroke="#263238" stroke-linecap="round" stroke-linejoin="round"/>
<path d="M385.323 253.932H352.446V317.43H385.323V253.932Z" fill="#263238" stroke="#263238" stroke-linecap="round" stroke-linejoin="round"/>
<path d="M203.647 281.61L214.319 317.141H193.717L203.647 281.61Z" fill="#263238" stroke="#263238" stroke-linecap="round" stroke-linejoin="round"/>
<path d="M204.466 277.861L203.104 276.691L167.788 317.141H196.864L204.466 277.861Z" fill="white" stroke="#263238" stroke-linecap="round" stroke-linejoin="round"/>
<path d="M203.104 276.691H174.029L166.34 317.141H195.407L203.104 276.691Z" fill="#FFC100" stroke="#263238" stroke-linecap="round" stroke-linejoin="round"/>
<path d="M177.606 284.593H196.208" stroke="#263238" stroke-linecap="round" stroke-linejoin="round"/>
<path d="M176.408 289.183H195.002" stroke="#263238" stroke-linecap="round" stroke-linejoin="round"/>
<path d="M175.21 293.772H193.803" stroke="#263238" stroke-linecap="round" stroke-linejoin="round"/>
<path d="M356.273 253.932H208.57V317.43H356.273V253.932Z" fill="white" stroke="#263238" stroke-linecap="round" stroke-linejoin="round"/>
<path d="M351.334 258.291H213.638V312.642H351.334V258.291Z" fill="#E5E5E5" stroke="#263238" stroke-linecap="round" stroke-linejoin="round"/>
<path d="M351.334 258.291H246.661V312.642H351.334V258.291Z" fill="white" stroke="#263238" stroke-linecap="round" stroke-linejoin="round"/>
<path d="M351.325 258.291H251.601V312.642H351.325V258.291Z" fill="#E5E5E5" stroke="#263238" stroke-linecap="round" stroke-linejoin="round"/>
<path d="M351.334 258.291H286.796V312.642H351.334V258.291Z" fill="#E5E5E5" stroke="#263238" stroke-linecap="round" stroke-linejoin="round"/>
<path d="M351.325 258.291H312.053V312.642H351.325V258.291Z" fill="white" stroke="#263238" stroke-linecap="round" stroke-linejoin="round"/>
<path d="M351.334 258.291H317V312.642H351.334V258.291Z" fill="#E5E5E5" stroke="#263238" stroke-linecap="round" stroke-linejoin="round"/>
<path d="M410.045 317.191H377.168V380.688H410.045V317.191Z" fill="#263238" stroke="#263238" stroke-linecap="round" stroke-linejoin="round"/>
<path d="M380.995 317.191H160.065V380.688H380.995V317.191Z" fill="white" stroke="#263238" stroke-linecap="round" stroke-linejoin="round"/>
<path d="M376.056 321.55H165.133V375.901H376.056V321.55Z" fill="#E5E5E5" stroke="#263238" stroke-linecap="round" stroke-linejoin="round"/>
<path d="M376.056 321.55H224.327V375.901H376.056V321.55Z" fill="#E5E5E5" stroke="#263238" stroke-linecap="round" stroke-linejoin="round"/>
<path d="M376.056 321.55H241.946V375.901H376.056V321.55Z" fill="white" stroke="#263238" stroke-linecap="round" stroke-linejoin="round"/>
<path d="M376.056 321.55H246.885V375.901H376.056V321.55Z" fill="#E5E5E5" stroke="#263238" stroke-linecap="round" stroke-linejoin="round"/>
<path d="M376.056 321.55H279.633V375.901H376.056V321.55Z" fill="#E5E5E5" stroke="#263238" stroke-linecap="round" stroke-linejoin="round"/>
<path d="M376.048 321.55H309.303V375.901H376.048V321.55Z" fill="white" stroke="#263238" stroke-linecap="round" stroke-linejoin="round"/>
<path d="M376.056 321.55H314.871V375.901H376.056V321.55Z" fill="#E5E5E5" stroke="#263238" stroke-linecap="round" stroke-linejoin="round"/>
<path d="M376.056 321.55H347.274V375.901H376.056V321.55Z" fill="#E5E5E5" stroke="#263238" stroke-linecap="round" stroke-linejoin="round"/>
<path d="M373.41 218.121L384.081 253.644H363.48L373.41 218.121Z" fill="#787878" stroke="#263238" stroke-linecap="round" stroke-linejoin="round"/>
<path d="M374.229 214.372L372.867 213.194L337.551 253.644H366.626L374.229 214.372Z" fill="white" stroke="#263238" stroke-linecap="round" stroke-linejoin="round"/>
<path d="M372.867 213.194H343.791L336.094 253.644H365.169L372.867 213.194Z" fill="#FFC100" stroke="#263238" stroke-linecap="round" stroke-linejoin="round"/>
<path d="M347.653 219.522H366.247" stroke="#263238" stroke-linecap="round" stroke-linejoin="round"/>
<path d="M346.455 224.103H365.048" stroke="#263238" stroke-linecap="round" stroke-linejoin="round"/>
<path d="M345.257 228.693H363.85" stroke="#263238" stroke-linecap="round" stroke-linejoin="round"/>
<path d="M294.313 276.6L304.984 312.131H284.382L294.313 276.6Z" fill="#263238" stroke="#263238" stroke-linecap="round" stroke-linejoin="round"/>
<path d="M295.132 272.851L293.77 271.673L258.453 312.131H287.529L295.132 272.851Z" fill="white" stroke="#263238" stroke-linecap="round" stroke-linejoin="round"/>
<path d="M293.77 271.673H264.694L256.997 312.131H286.072L293.77 271.673Z" fill="#FFC100" stroke="#263238" stroke-linecap="round" stroke-linejoin="round"/>
<path d="M268.22 294.654L268.306 294.58L268.694 295.05L273.237 291.432L272.323 290.336L267.901 293.847L267.427 292.627L266.565 293.665L263.85 290.411L262.462 291.506L265.427 295.066L263.703 297.176L260.764 299.516L261.677 300.612L263.186 299.425L261.901 305.449H267.487L268.797 299.252L269.97 300.661L271.358 299.557L269.047 296.78L268.22 294.654ZM269.694 298.716L270.065 298.42L270.521 298.964L270.142 299.26L269.694 298.716ZM269.935 299.433L269.556 299.73L269.108 299.186L269.478 298.89L269.935 299.433ZM269.547 298.552L269.099 298.008L269.478 297.711L269.927 298.255L269.547 298.552ZM263.772 297.406H264.401L264.022 297.703H263.824L263.651 297.497L263.772 297.406ZM264.729 297.406L264.962 297.686H264.375L264.729 297.406ZM263.539 297.769L263.462 298.131L263.013 298.494L262.763 298.197L263.444 297.654L263.539 297.769ZM263.393 298.469L263.306 298.848L263.151 298.659L263.393 298.469ZM262.798 298.659L262.117 299.203L261.867 298.906L262.548 298.362L262.798 298.659ZM262.936 298.832L263.186 299.128L262.505 299.672L262.255 299.367L262.936 298.832ZM265.186 297.538L265.065 297.39H265.375L265.186 297.538ZM268.022 297.39L267.78 297.579L267.616 297.39H268.022ZM268.297 297.456L268.496 297.686H267.996L268.297 297.456ZM269.159 297.686H268.875L268.625 297.39H269.246L269.358 297.53L269.159 297.686ZM268.547 294.39L269.237 293.847L269.487 294.143L268.797 294.695L268.547 294.39ZM271.237 292.256L271.918 291.712L272.168 292.009L271.487 292.553L271.237 292.256ZM271.237 292.718L270.556 293.262L270.306 292.965L270.996 292.421L271.237 292.718ZM271.064 292.083L270.815 291.787L271.495 291.243L271.745 291.548L271.064 292.083ZM270.849 292.256L270.168 292.8L269.918 292.495L270.599 291.96L270.849 292.256ZM269.987 292.965L269.297 293.509L269.056 293.212L269.737 292.668L269.987 292.965ZM270.125 293.13L270.375 293.435L269.694 293.97L269.444 293.674L270.125 293.13ZM272.392 291.861L272.142 291.564L272.676 291.136L272.926 291.432L272.392 291.861ZM272.53 290.971L272.004 291.391L271.754 291.094L272.289 290.674L272.53 290.971ZM268.858 293.393L269.108 293.69L268.418 294.242L268.168 293.946L268.858 293.393ZM266.125 294.259L265.711 293.764L266.091 293.468L266.436 293.88L266.125 294.259ZM264.401 292.174L263.944 291.63L264.324 291.333L264.772 291.877L264.401 292.174ZM264.91 292.042L265.367 292.586L264.987 292.883L264.539 292.347L264.91 292.042ZM264.186 292.347L263.806 292.644L263.358 292.1L263.737 291.803L264.186 292.347ZM264.324 292.512L264.781 293.056L264.401 293.352L263.953 292.808L264.324 292.512ZM264.918 293.22L265.367 293.764L264.996 294.061L264.539 293.517L264.918 293.22ZM265.134 293.056L265.505 292.759L265.961 293.295L265.582 293.599L265.134 293.056ZM264.177 291.169L263.806 291.465L263.453 291.045L263.824 290.74L264.177 291.169ZM263.238 291.21L263.591 291.63L263.22 291.935L262.867 291.506L263.238 291.21ZM265.591 294.786L265.134 294.234L265.513 293.937L265.961 294.473L265.918 294.522L265.591 294.786ZM261.651 299.112L261.901 299.409L261.367 299.837L261.126 299.54L261.651 299.112ZM261.514 300.002L262.048 299.582L262.289 299.878L261.764 300.307L261.514 300.002ZM265.349 297.728L265.729 297.431H267.263L267.513 297.728H265.349ZM269.004 298.346L269.34 298.741L268.961 299.046L268.884 298.939L269.004 298.346ZM269.694 299.92L270.073 299.623L270.427 300.051L270.047 300.348L269.694 299.92ZM270.633 299.878L270.28 299.458L270.668 299.112L271.021 299.54L270.633 299.878Z" fill="white"/>
<path d="M282.589 290.806L282.71 290.707L283.245 291.342L289.408 286.439L288.158 284.947L282.124 289.71L281.469 288.062L280.322 289.479L276.702 285.046L274.823 286.538L278.84 291.366L276.504 294.234L272.513 297.398L273.763 298.89L275.797 297.242L274.073 305.416H281.641L283.426 297.011L285.012 298.914L286.891 297.423L283.762 293.657L282.589 290.806ZM284.589 296.319L285.098 295.915L285.71 296.656L285.201 297.06L284.589 296.319ZM284.917 297.283L284.408 297.686L283.796 296.953L284.305 296.549L284.917 297.283ZM284.4 296.096L283.788 295.355L284.296 294.951L284.908 295.692L284.4 296.096ZM276.564 294.539H277.426L276.918 294.943H276.65L276.418 294.671L276.564 294.539ZM277.857 294.539L278.176 294.918H277.374L277.857 294.539ZM276.245 295.025L276.142 295.528L275.53 296.014L275.194 295.61L276.116 294.868L276.245 295.025ZM276.038 295.981L275.935 296.5L275.719 296.236L276.038 295.981ZM275.237 296.236L274.314 296.978L273.978 296.566L274.9 295.832L275.237 296.236ZM275.435 296.467L275.771 296.871L274.84 297.604L274.504 297.2L275.435 296.467ZM278.478 294.72L278.314 294.514H278.736L278.478 294.72ZM282.322 294.514L281.995 294.778L281.779 294.514H282.322ZM282.693 294.596L282.969 294.918H282.288L282.693 294.596ZM283.831 294.918H283.443L283.107 294.514H283.969L284.124 294.704L283.831 294.918ZM282.969 290.452L283.908 289.702L284.245 290.106L283.305 290.856L282.969 290.452ZM286.615 287.551L287.546 286.818L287.882 287.222L286.96 287.955L286.615 287.551ZM286.667 288.186L285.744 288.919L285.408 288.515L286.331 287.782L286.667 288.186ZM286.425 287.362L286.089 286.958L287.012 286.225L287.356 286.628L286.425 287.362ZM286.184 287.576L285.262 288.309L284.925 287.906L285.848 287.172L286.184 287.576ZM284.969 288.54L284.046 289.273L283.71 288.87L284.632 288.136L284.969 288.54ZM285.158 288.763L285.503 289.175L284.572 289.908L284.236 289.504L285.158 288.763ZM288.21 287.016L287.874 286.612L288.598 286.035L288.934 286.439L288.21 287.016ZM288.408 285.804L287.684 286.381L287.348 285.977L288.072 285.401L288.408 285.804ZM283.426 289.1L283.762 289.504L282.822 290.246L282.486 289.842L283.426 289.1ZM282.564 290.476H282.521L282.452 290.303L282.564 290.476ZM279.753 290.27L279.193 289.603L279.702 289.199L280.167 289.76L279.753 290.27ZM277.392 287.444L276.702 286.752L277.211 286.348L277.823 287.082L277.392 287.444ZM278.098 287.271L278.71 288.004L278.202 288.408L277.581 287.675L278.098 287.271ZM277.107 287.675L276.599 288.079L275.987 287.345L276.495 286.942L277.107 287.675ZM277.297 287.906L277.909 288.639L277.4 289.043L276.788 288.309L277.297 287.906ZM278.098 288.861L278.71 289.603L278.202 290.007L277.59 289.273L278.098 288.861ZM278.392 288.639L278.9 288.235L279.512 288.969L279.004 289.372L278.392 288.639ZM277.099 286.076L276.59 286.48L276.116 285.912L276.624 285.5L277.099 286.076ZM275.823 286.134L276.305 286.711L275.797 287.115L275.314 286.538L275.823 286.134ZM279.021 290.979L278.392 290.229L278.9 289.826L279.512 290.559L279.452 290.633L279.021 290.979ZM273.737 296.821L274.073 297.225L273.349 297.802L273.013 297.398L273.737 296.821ZM273.538 298.033L274.263 297.456L274.599 297.86L273.875 298.436L273.538 298.033ZM278.71 294.943L279.219 294.539H281.314L281.65 294.943H278.71ZM283.667 295.767L284.124 296.302L283.615 296.714L283.495 296.574L283.667 295.767ZM284.607 297.901L285.115 297.497L285.598 298.074L285.089 298.478L284.607 297.901ZM285.882 297.843L285.4 297.266L285.908 296.862L286.391 297.439L285.882 297.843Z" fill="white"/>
<path d="M290.873 281.726C290.822 281.116 289.951 280.621 288.813 280.539C288.853 280.368 288.876 280.195 288.882 280.02C288.882 278.182 287.02 276.724 284.719 276.724C283.812 276.672 282.914 276.917 282.172 277.417C281.43 277.917 280.887 278.643 280.633 279.476C280.486 279.468 280.339 279.468 280.193 279.476C279.65 279.438 279.11 279.582 278.665 279.883C278.22 280.183 277.898 280.622 277.754 281.124C277.332 280.772 276.792 280.578 276.232 280.578C275.673 280.578 275.132 280.772 274.711 281.124C274.32 281.01 273.913 280.955 273.504 280.959C272.521 280.959 271.72 281.231 271.72 281.569C271.728 281.646 271.769 281.718 271.832 281.767L290.873 281.726Z" fill="white"/>
<path d="M273.832 284.445C273.832 284.173 273.426 283.959 272.926 283.917C272.931 283.843 272.931 283.769 272.926 283.695C272.878 283.272 272.662 282.884 272.321 282.611C271.981 282.337 271.543 282.2 271.099 282.228C270.7 282.205 270.304 282.313 269.977 282.533C269.649 282.753 269.41 283.072 269.297 283.44H269.108C268.868 283.423 268.63 283.487 268.434 283.619C268.238 283.751 268.095 283.944 268.03 284.165C267.846 284.009 267.608 283.923 267.362 283.923C267.116 283.923 266.879 284.009 266.694 284.165C266.52 284.118 266.34 284.096 266.16 284.099C265.729 284.099 265.375 284.214 265.375 284.362C265.377 284.38 265.382 284.397 265.391 284.413C265.4 284.429 265.412 284.442 265.427 284.453L273.832 284.445Z" fill="white"/>
<path d="M292.132 340.098L302.803 375.629H282.193L292.132 340.098Z" fill="#263238" stroke="#263238" stroke-linecap="round" stroke-linejoin="round"/>
<path d="M292.942 336.349L291.58 335.17L256.264 375.629H285.339L292.942 336.349Z" fill="white" stroke="#263238" stroke-linecap="round" stroke-linejoin="round"/>
<path d="M291.58 335.17H262.513L254.816 375.629H283.891L291.58 335.17Z" fill="white" stroke="#263238" stroke-linecap="round" stroke-linejoin="round"/>
<path d="M284.365 345.544H264.677L259.462 372.942H279.159L284.365 345.544Z" fill="#FFC100"/>
<path d="M266.099 339.472L265.289 343.707H284.986L285.787 339.472H266.099Z" fill="#FFC100"/>
<path d="M228.766 340.098L239.438 375.629H218.827L228.766 340.098Z" fill="#263238" stroke="#263238" stroke-linecap="round" stroke-linejoin="round"/>
<path d="M229.576 336.349L228.215 335.17L192.898 375.629H221.974L229.576 336.349Z" fill="white" stroke="#263238" stroke-linecap="round" stroke-linejoin="round"/>
<path d="M228.214 335.17H199.148L191.45 375.629H220.525L228.214 335.17Z" fill="white" stroke="#263238" stroke-linecap="round" stroke-linejoin="round"/>
<path d="M217.491 349.689C217.139 350.87 216.547 351.973 215.748 352.934C214.949 353.896 213.96 354.697 212.836 355.292C209.044 357.27 203.182 354.468 198.519 358.432C193.855 362.395 193.691 370.792 203.527 371.781C213.362 372.769 215.422 365.683 215.422 365.683C215.422 365.683 219.913 366.507 219.732 365.189C219.551 363.87 216.621 362.881 216.621 362.881C217.913 360.825 218.684 358.508 218.87 356.116C218.982 352.573 218.87 350.184 218.87 350.184C218.87 350.184 221.284 350.678 222.146 350.184C223.008 349.689 224.732 345.075 224.732 345.075C224.732 345.075 221.801 347.052 220.422 347.052C219.043 347.052 215.414 344.251 215.414 344.251C215.414 344.251 214.733 349.689 217.491 349.689Z" fill="#FFC100"/>
<path d="M200.837 339.191L200.036 343.427H219.724L220.534 339.191H200.837Z" fill="#FFC100"/>
<path d="M199.674 345.322L198.872 349.549H210.699L211.5 345.322H199.674Z" fill="#FFC100"/>
<path d="M357.678 340.098L368.35 375.629H347.748L357.678 340.098Z" fill="#263238" stroke="#263238" stroke-linecap="round" stroke-linejoin="round"/>
<path d="M358.497 336.349L357.135 335.17L321.819 375.629H350.886L358.497 336.349Z" fill="white" stroke="#263238" stroke-linecap="round" stroke-linejoin="round"/>
<path d="M357.135 335.17H328.06L320.362 375.629H349.438L357.135 335.17Z" fill="#FFC100" stroke="#263238" stroke-linecap="round" stroke-linejoin="round"/>
<path d="M335.749 347.011C335.822 347.725 335.667 348.443 335.305 349.071C334.943 349.699 334.391 350.208 333.721 350.53C333.05 350.852 332.294 350.973 331.55 350.876C330.807 350.779 330.112 350.47 329.556 349.988C329 349.506 328.61 348.875 328.437 348.177C328.263 347.48 328.315 346.748 328.585 346.079C328.855 345.41 329.331 344.835 329.95 344.429C330.568 344.023 331.301 343.806 332.051 343.806C332.986 343.763 333.9 344.077 334.593 344.678C335.287 345.278 335.702 346.118 335.749 347.011Z" fill="white"/>
<path d="M343.679 352.903C343.756 353.619 343.604 354.34 343.243 354.972C342.882 355.603 342.329 356.116 341.657 356.441C340.986 356.766 340.227 356.889 339.48 356.793C338.734 356.698 338.036 356.388 337.477 355.905C336.919 355.423 336.526 354.789 336.352 354.089C336.178 353.389 336.23 352.654 336.501 351.983C336.772 351.312 337.25 350.734 337.871 350.328C338.493 349.921 339.228 349.704 339.981 349.706C340.915 349.663 341.828 349.975 342.521 350.575C343.214 351.174 343.63 352.011 343.679 352.903Z" fill="white"/>
<path d="M349.11 348.049C349.171 348.644 349.042 349.242 348.741 349.765C348.44 350.288 347.98 350.711 347.422 350.98C346.864 351.248 346.234 351.349 345.615 351.269C344.996 351.189 344.417 350.932 343.954 350.531C343.49 350.13 343.165 349.605 343.02 349.024C342.875 348.443 342.917 347.834 343.141 347.277C343.365 346.719 343.761 346.24 344.275 345.901C344.79 345.563 345.399 345.381 346.024 345.38C346.803 345.344 347.566 345.605 348.144 346.105C348.722 346.605 349.07 347.305 349.11 348.049Z" fill="white"/>
<path d="M332.672 368.806C336.514 368.806 339.628 366.113 339.628 362.791C339.628 359.469 336.514 356.776 332.672 356.776C328.83 356.776 325.715 359.469 325.715 362.791C325.715 366.113 328.83 368.806 332.672 368.806Z" fill="white"/>
<path d="M219.293 270.264H215.302V312.7H219.293V270.264Z" fill="#FFC100" stroke="#263238" stroke-linecap="round" stroke-linejoin="round"/>
<path d="M240.024 270.264H218.224V312.7H240.024V270.264Z" fill="#FFC100" stroke="#263238" stroke-linecap="round" stroke-linejoin="round"/>
<path d="M223.81 270.264H219.819V312.7H223.81V270.264Z" fill="white" stroke="#263238" stroke-linecap="round" stroke-linejoin="round"/>
<path d="M244.549 270.264H222.749V312.7H244.549V270.264Z" fill="white" stroke="#263238" stroke-linecap="round" stroke-linejoin="round"/>
<path d="M228.335 270.264H224.344V312.7H228.335V270.264Z" fill="white" stroke="#263238" stroke-linecap="round" stroke-linejoin="round"/>
<path d="M246.403 270.264H227.266V312.7H246.403V270.264Z" fill="white" stroke="#263238" stroke-linecap="round" stroke-linejoin="round"/>
<path d="M232.852 270.264H228.861V312.7H232.852V270.264Z" fill="#FFC100" stroke="#263238" stroke-linecap="round" stroke-linejoin="round"/>
<path d="M246.67 270.264H231.783V312.7H246.67V270.264Z" fill="#FFC100" stroke="#263238" stroke-linecap="round" stroke-linejoin="round"/>
<path d="M321.638 270.264H317.647V312.7H321.638V270.264Z" fill="white" stroke="#263238" stroke-linecap="round" stroke-linejoin="round"/>
<path d="M342.378 270.264H320.578V312.7H342.378V270.264Z" fill="white" stroke="#263238" stroke-linecap="round" stroke-linejoin="round"/>
<path d="M326.164 270.264H322.172V312.7H326.164V270.264Z" fill="#FFC100" stroke="#263238" stroke-linecap="round" stroke-linejoin="round"/>
<path d="M346.895 270.264H325.095V312.7H346.895V270.264Z" fill="#FFC100" stroke="#263238" stroke-linecap="round" stroke-linejoin="round"/>
<path d="M330.68 270.264H326.689V312.7H330.68V270.264Z" fill="#FFC100" stroke="#263238" stroke-linecap="round" stroke-linejoin="round"/>
<path d="M348.748 270.264H329.612V312.7H348.748V270.264Z" fill="#FFC100" stroke="#263238" stroke-linecap="round" stroke-linejoin="round"/>
<path d="M335.197 270.264H331.206V312.7H335.197V270.264Z" fill="white" stroke="#263238" stroke-linecap="round" stroke-linejoin="round"/>
<path d="M351.42 270.264H334.137V312.7H351.42V270.264Z" fill="white" stroke="#263238" stroke-linecap="round" stroke-linejoin="round"/>
<path d="M261.16 227.861H246.808V249.062H261.16V227.861Z" fill="white" stroke="#263238" stroke-linecap="round" stroke-linejoin="round"/>
<path d="M258.1 227.861H243.748V249.062H258.1V227.861Z" fill="white" stroke="#263238" stroke-linecap="round" stroke-linejoin="round"/>
<path d="M296.735 240.641H266.729V249.062H296.735V240.641Z" fill="white" stroke="#263238" stroke-linecap="round" stroke-linejoin="round"/>
<path d="M296.744 237.427H265.66V243.352H296.744V237.427Z" fill="#263238" stroke="#263238" stroke-linecap="round" stroke-linejoin="round"/>
<path d="M315.121 240.641H296.856V249.062H315.121V240.641Z" fill="white" stroke="#263238" stroke-linecap="round" stroke-linejoin="round"/>
<path d="M316.664 237.427H296.856V243.352H316.664V237.427Z" fill="#263238" stroke="#263238" stroke-linecap="round" stroke-linejoin="round"/>
<path d="M297.64 216.992H245.954V220.23H297.64V216.992Z" fill="#263238" stroke="#263238" stroke-linecap="round" stroke-linejoin="round"/>
<path d="M299.786 216.992H277.461V220.23H299.786V216.992Z" fill="white" stroke="#263238" stroke-linecap="round" stroke-linejoin="round"/>
<path d="M297.64 213.688H245.954V216.926H297.64V213.688Z" fill="white" stroke="#263238" stroke-linecap="round" stroke-linejoin="round"/>
<path d="M299.786 213.688H277.461V216.926H299.786V213.688Z" fill="white" stroke="#263238" stroke-linecap="round" stroke-linejoin="round"/>
<path d="M297.64 210.375H245.954V213.614H297.64V210.375Z" fill="#FFC100" stroke="#263238" stroke-linecap="round" stroke-linejoin="round"/>
<path d="M299.786 210.375H277.461V213.614H299.786V210.375Z" fill="white" stroke="#263238" stroke-linecap="round" stroke-linejoin="round"/>
<path d="M297.64 207.071H245.954V210.31H297.64V207.071Z" fill="white" stroke="#263238" stroke-linecap="round" stroke-linejoin="round"/>
<path d="M299.786 207.071H277.461V210.31H299.786V207.071Z" fill="white" stroke="#263238" stroke-linecap="round" stroke-linejoin="round"/>
<path d="M297.64 203.759H245.954V206.997H297.64V203.759Z" fill="#FFC100" stroke="#263238" stroke-linecap="round" stroke-linejoin="round"/>
<path d="M299.786 203.759H277.461V206.997H299.786V203.759Z" fill="white" stroke="#263238" stroke-linecap="round" stroke-linejoin="round"/>
<path d="M48.9271 287.807C48.9271 287.807 51.4528 300.076 51.4528 304.674C51.4528 309.272 48.272 317.594 48.272 327.458C48.272 337.321 51.22 363.384 51.22 363.384L62.2192 363.821C62.2192 363.821 65.4258 331.841 68.8652 324.392C72.3046 316.943 73.6751 301.386 73.6751 297.003C73.797 293.809 74.3356 290.642 75.2785 287.576L48.9271 287.807Z" fill="#263238" stroke="#263238" stroke-linecap="round" stroke-linejoin="round"/>
<path d="M46.1773 355.276H64.5121L64.2793 368.864C64.2793 368.864 74.8216 375.217 77.3473 376.09C79.8729 376.964 81.2435 378.941 81.0108 379.592C80.778 380.243 79.6402 380.688 79.6402 380.688H48.0134C47.3453 378.939 47.1093 377.067 47.3238 375.217C47.6752 373.423 48.2123 371.668 48.9271 369.976L46.1773 355.276Z" fill="#FFC100" stroke="#263238" stroke-linecap="round" stroke-linejoin="round"/>
<path d="M54.8318 287.807C54.8318 287.807 57.3488 300.076 57.3488 304.674C57.3488 309.272 54.1422 317.594 54.1422 327.458C54.1422 337.321 57.1247 363.384 57.1247 363.384L68.1238 363.821C68.1238 363.821 71.3305 331.841 74.7699 324.392C78.2092 316.943 79.5798 301.386 79.5798 297.003C79.7016 293.809 80.2402 290.642 81.1832 287.576L54.8318 287.807Z" fill="#263238" stroke="#263238" stroke-linecap="round" stroke-linejoin="round"/>
<path d="M81.4762 187.468C81.4762 187.468 88.5791 232.384 91.1048 240.707C93.6304 249.029 103.44 285.392 103.44 285.392C94.5068 289.112 84.9732 291.341 75.2526 291.984C58.9867 293.08 37.9021 291.762 31.713 289.133C25.5238 286.505 21.1707 284.758 21.1707 284.758L27.8167 252.334C27.8167 252.334 42.2552 213.556 42.2552 204.797C42.2552 196.038 41.376 187.048 46.6428 180.456C51.9096 173.864 58.0988 170.815 62.4519 172.125C66.805 173.436 81.4762 187.468 81.4762 187.468Z" fill="#ABABAB"/>
<path d="M95.682 256.94C95.613 256.676 95.5355 256.412 95.4665 256.116C93.9408 256.478 92.4236 256.824 90.9238 257.129L92.9839 253.075L95.3803 255.794C95.1993 255.16 95.0269 254.534 94.8545 253.924L93.5011 252.375C93.7856 252.317 94.0787 252.243 94.3631 252.169C94.2856 251.905 94.2166 251.641 94.139 251.345C64.2449 258.242 40.4881 254.303 28.2822 251.032C27.9978 251.814 27.834 252.251 27.834 252.251L27.7219 252.795L29.6183 256.421C28.7563 256.198 27.8943 255.967 27.1185 255.753L26.9547 256.577C38.0909 259.617 49.6207 261.137 61.202 261.093C72.8303 261.07 84.4112 259.675 95.682 256.94ZM92.234 252.688L90.1221 256.808L86.5448 253.759C88.4297 253.457 90.3261 253.1 92.234 252.688ZM89.5273 257.451C86.9413 257.961 84.4157 258.39 81.9331 258.752L85.9673 254.418L89.5273 257.451ZM85.157 254.047L81.0194 258.497L78.2696 255.036C80.5338 254.756 82.8353 254.426 85.1742 254.047H85.157ZM80.3212 258.991C77.4679 259.37 74.7009 259.659 72.0029 259.865L77.58 255.44L80.3212 258.991ZM76.4594 255.242L71.1064 259.511L66.5292 255.959C69.7358 255.836 73.0545 255.597 76.4766 255.234L76.4594 255.242ZM28.1874 251.946C30.1959 252.482 32.4974 253.034 35.0834 253.553L30.4717 256.355L28.1874 251.946ZM31.2044 256.89L35.3075 254.418L38.3504 258.382C35.7558 257.912 33.368 257.385 31.2389 256.882L31.2044 256.89ZM35.8333 253.685C38.4193 254.188 41.2984 254.657 44.4533 255.044L39.4106 258.299L35.8333 253.685ZM40.3244 258.678L44.9361 255.704L49.1771 259.758C46.0394 259.469 43.1 259.099 40.3588 258.67L40.3244 258.678ZM45.686 255.176C48.272 255.473 51.0045 255.704 53.8922 255.86L49.996 259.313L45.686 255.176ZM50.6597 259.865L54.4956 256.454L59.1591 260.252C56.1507 260.211 53.3147 260.071 50.6253 259.865H50.6597ZM55.168 255.918C57.1334 256 59.1591 256.058 61.2537 256.058C62.2364 256.058 63.2363 256.058 64.2535 256.017L59.7366 259.642L55.168 255.918ZM65.4517 256.14L70.3995 259.972C66.8826 260.203 63.5035 260.285 60.2969 260.269L65.4517 256.14Z" fill="white"/>
<path d="M100.992 276.246C100.863 275.768 100.725 275.282 100.595 274.788L98.1645 271.961L99.7075 271.541C99.6299 271.277 99.561 271.014 99.492 270.717C98.7938 270.898 98.0956 271.096 97.406 271.269C97.3633 271.261 97.3194 271.261 97.2767 271.269C97.228 271.289 97.1817 271.314 97.1388 271.343C61.8657 280.226 34.6869 273.881 24.1188 270.519L23.9464 271.343C24.9377 271.656 26.0583 271.994 27.3254 272.34L23.274 275.307H23.1619L22.9895 276.131C23.0427 276.179 23.1082 276.212 23.1793 276.228C23.2505 276.244 23.3248 276.242 23.3947 276.221C29.9114 278.339 43.2207 281.767 61.2365 281.767C74.6945 281.73 88.0793 279.872 100.992 276.246ZM97.5956 272.604L100.182 275.603C98.9921 275.933 97.8025 276.246 96.6302 276.534L97.5956 272.604ZM96.7853 272.307L95.9233 275.818L93.5098 273.082C94.5959 272.835 95.682 272.579 96.7853 272.307ZM95.6303 276.773C94.0528 277.161 92.484 277.507 90.9324 277.836L92.9925 273.774L95.6303 276.773ZM92.234 273.354L90.1221 277.523L86.5448 274.474C88.4326 274.145 90.329 273.766 92.234 273.354ZM89.5273 278.116C86.9413 278.627 84.4157 279.064 81.9331 279.418L85.9673 275.084L89.5273 278.116ZM85.157 274.713L81.0194 279.163L78.2696 275.702C80.5338 275.433 82.8353 275.103 85.1742 274.713H85.157ZM80.3211 279.657C77.4679 280.036 74.7009 280.325 72.0028 280.531L77.58 276.122L80.3211 279.657ZM76.4594 275.908L71.1236 280.16L66.5464 276.617C69.7358 276.501 73.0545 276.262 76.4766 275.9L76.4594 275.908ZM24.2222 275.636L27.584 273.205L29.6442 277.152C27.5323 276.625 25.7307 276.098 24.2394 275.628L24.2222 275.636ZM28.2046 272.612C30.2131 273.14 32.5146 273.692 35.1006 274.211L30.4889 277.012L28.2046 272.612ZM31.2216 277.556L35.3248 275.084L38.3676 279.048C35.7557 278.553 33.368 278.059 31.2389 277.548L31.2216 277.556ZM35.8506 274.351C38.4366 274.862 41.3157 275.323 44.4706 275.71L39.4279 279.006L35.8506 274.351ZM40.3588 279.336L44.9705 276.361L49.2116 280.415C46.0394 280.16 43.1 279.764 40.3588 279.336ZM45.686 275.842C48.272 276.139 51.0045 276.378 53.8922 276.526L49.996 279.979L45.686 275.842ZM50.6597 280.531L54.4956 277.119L59.159 280.926C56.1507 280.877 53.3147 280.737 50.6252 280.531H50.6597ZM55.168 276.584C57.1334 276.672 59.1619 276.718 61.2537 276.724C62.2364 276.724 63.2363 276.724 64.2535 276.724L59.7366 280.341L55.168 276.584ZM65.4517 276.806L70.3995 280.638C66.8826 280.869 63.5035 280.951 60.2969 280.935L65.4517 276.806Z" fill="white"/>
<path d="M102.862 283.126L102.647 282.302C69.3651 293.426 31.8509 285.071 21.6793 282.418L21.5069 283.242C35.6448 286.832 50.2031 288.687 64.831 288.763C76.968 288.771 90.2169 287.337 102.862 283.126Z" fill="white"/>
<path d="M22.1448 280.16L21.981 280.984C35.9712 284.493 50.3675 286.306 64.831 286.381C76.7783 286.381 89.829 284.989 102.259 280.935C102.19 280.679 102.121 280.407 102.044 280.111C69.4082 290.781 32.8939 282.912 22.1448 280.16Z" fill="white"/>
<path d="M98.268 266.317C98.1904 266.053 98.1214 265.789 98.0525 265.493C68.8479 274.804 35.1265 268.69 24.9376 266.457L24.7739 267.281C37.0946 269.923 49.6784 271.282 62.3053 271.335C73.7958 271.351 86.4069 270.099 98.268 266.317Z" fill="white"/>
<path d="M97.8111 264.628C97.7422 264.364 97.6646 264.1 97.5956 263.804C68.8307 272.81 35.8592 266.984 25.3083 264.702L25.1445 265.526C37.35 268.118 49.811 269.452 62.314 269.506C73.6493 269.522 86.0793 268.294 97.8111 264.628Z" fill="white"/>
<path d="M81.4762 187.468C81.4762 187.468 88.5791 232.384 91.1048 240.707C93.6304 249.029 103.44 285.392 103.44 285.392C94.5068 289.112 84.9732 291.341 75.2526 291.984C58.9867 293.08 37.9021 291.762 31.713 289.133C25.5238 286.505 21.1707 284.758 21.1707 284.758L27.8167 252.334C27.8167 252.334 42.2552 213.556 42.2552 204.797C42.2552 196.038 41.376 187.048 46.6428 180.456C51.9096 173.864 58.0988 170.815 62.4519 172.125C66.805 173.436 81.4762 187.468 81.4762 187.468Z" stroke="#263238" stroke-linecap="round" stroke-linejoin="round"/>
<path d="M52.082 355.276H70.4168L70.184 368.864C70.184 368.864 80.7263 375.217 83.252 376.09C85.7776 376.964 87.1482 378.941 86.9155 379.592C86.6827 380.243 85.5449 380.688 85.5449 380.688H53.9181C53.25 378.939 53.014 377.067 53.2285 375.217C53.5799 373.423 54.117 371.668 54.8318 369.976L52.082 355.276Z" fill="#FFC100" stroke="#263238" stroke-linecap="round" stroke-linejoin="round"/>
<path d="M55.5818 168.195C55.5818 168.195 42.9793 176.74 39.9968 186.158C37.0143 195.576 36.1006 213.103 35.411 217.05C34.7214 220.997 23.955 257.352 23.955 257.352C23.955 257.352 32.8939 263.268 48.703 264.768C64.5121 266.267 81.9331 262.576 82.6227 262.576C83.3123 262.576 76.8904 187.048 77.1231 186.381C77.3559 185.713 64.288 171.26 61.995 169.291C59.7021 167.321 55.5818 168.195 55.5818 168.195Z" fill="white" stroke="#263238" stroke-linecap="round" stroke-linejoin="round"/>
<path d="M83.864 153.66C83.864 153.66 84.1743 161.809 85.7518 164.528C87.3292 167.247 87.0189 169.958 82.9158 169.052C78.8127 168.145 73.4338 159.988 72.8131 155.167C72.1925 150.347 81.3383 147.924 83.864 153.66Z" fill="#263238" stroke="#263238" stroke-linecap="round" stroke-linejoin="round"/>
<path d="M76.718 178.94L84.1053 238.342L97.5353 236.834L81.7865 178.676C81.7865 178.676 78.6144 174.803 76.718 178.94Z" fill="#FFC100" stroke="#263238" stroke-linecap="round" stroke-linejoin="round"/>
<path d="M84.0191 128.33C84.9846 130.058 85.8312 131.844 86.5534 133.678C87.3034 135.845 87.1741 139.866 87.4154 140.525C87.6568 141.184 91.0272 145.065 91.0444 145.848C91.0617 146.631 87.9843 148.172 87.9843 148.172C87.9843 148.172 87.174 153.536 86.5879 155.802C86.0017 158.068 86.1052 159.337 82.9933 159.287C79.8815 159.238 75.6491 158.06 70.3737 155.448C65.0982 152.836 61.1761 149.029 60.159 143.829C59.1418 138.63 73.27 128.544 75.3474 127.193C77.4248 125.841 84.0191 128.33 84.0191 128.33Z" fill="white" stroke="#263238" stroke-linecap="round" stroke-linejoin="round"/>
<path d="M85.3811 140.64C85.3294 141.662 84.9329 142.478 84.5191 142.461C84.1053 142.445 83.7605 141.588 83.8123 140.566C83.864 139.544 84.2691 138.72 84.6743 138.737C85.0794 138.753 85.4328 139.61 85.3811 140.64Z" fill="#263238"/>
<path d="M81.6659 138.144C81.6659 138.144 83.2088 134.37 85.6138 135.672" stroke="#263238" stroke-linecap="round" stroke-linejoin="round"/>
<path d="M87.1568 150.108C87.1568 150.108 84.2433 151.253 82.7003 148.963" stroke="#263238" stroke-linecap="round" stroke-linejoin="round"/>
<path d="M57.9781 158.818C57.9781 158.818 84.9156 165.476 84.476 168.492C84.0364 171.507 83.3813 180.299 79.8557 180.744C76.3301 181.189 49.5391 171.392 47.5307 170.774C45.5222 170.156 49.1599 161.356 51.1769 159.139C53.194 156.923 57.9781 158.818 57.9781 158.818Z" fill="#FFC100" stroke="#263238" stroke-linecap="round" stroke-linejoin="round"/>
<path d="M72.1322 135.639C72.1322 135.639 75.1319 154.591 78.6661 162.213C82.2003 169.835 85.8552 171.936 84.5105 173.419C83.1658 174.902 75.4078 170.123 75.4078 170.123C75.4078 170.123 82.0279 179.121 77.6317 181.568C73.2355 184.016 62.064 178.759 59.6935 176.83L57.3747 174.902C57.3747 174.902 56.6334 180.67 48.9788 184.148C41.3243 187.625 30.7734 181.626 37.6522 173.436C44.5309 165.245 47.3928 155.835 46.1773 150.158C44.9619 144.48 64.9 129.253 72.1322 135.639Z" fill="#263238" stroke="#263238" stroke-linecap="round" stroke-linejoin="round"/>
<path d="M50.5304 197.982C52.2544 201.69 56.0731 205.052 58.9694 207.969C63.5897 212.625 69.0893 216.209 73.9165 220.626C74.7785 221.45 84.3122 229.336 85.45 228.866C85.45 228.866 94.932 224.746 101.613 218.863C108.293 212.979 124.887 194.785 124.887 194.785C129.024 193.755 135.627 188.432 135.627 188.432L141.765 187.658C141.956 187.619 142.126 187.514 142.241 187.362C142.357 187.211 142.409 187.024 142.389 186.837C142.368 186.651 142.277 186.479 142.131 186.353C141.986 186.228 141.797 186.158 141.601 186.158L135.903 186.587L143.661 182.722C143.75 182.678 143.83 182.617 143.895 182.543C143.959 182.469 144.009 182.384 144.039 182.292C144.069 182.201 144.081 182.104 144.072 182.008C144.063 181.912 144.035 181.819 143.988 181.733C143.906 181.591 143.777 181.478 143.622 181.413C143.466 181.347 143.292 181.332 143.126 181.371L134.817 183.431L141.877 179.731C142.083 179.622 142.236 179.438 142.302 179.221C142.367 179.004 142.34 178.771 142.226 178.573C142.111 178.375 141.92 178.229 141.692 178.167C141.465 178.104 141.221 178.13 141.015 178.239L132.912 182.112L136.929 178.816L138.273 177.209C138.352 177.093 138.388 176.954 138.375 176.816C138.362 176.678 138.302 176.547 138.203 176.445C138.104 176.343 137.973 176.276 137.83 176.253C137.686 176.23 137.539 176.254 137.411 176.32L135.808 177.457C132.886 179.574 125.886 184.667 125.231 185.499C124.369 186.554 120.206 191.119 120.206 191.119C120.206 191.119 113.077 196.565 103.569 202.926C99.1125 206.029 94.4187 208.809 89.5273 211.241C86.631 207.755 77.9248 197.06 74.494 190.509C71.9037 185.72 67.5994 181.979 62.3657 179.97" fill="white"/>
<path d="M50.5304 197.982C52.2544 201.69 56.0731 205.052 58.9694 207.969C63.5897 212.625 69.0893 216.209 73.9165 220.626C74.7785 221.45 84.3122 229.336 85.45 228.866C85.45 228.866 94.932 224.746 101.613 218.863C108.293 212.979 124.887 194.785 124.887 194.785C129.024 193.755 135.627 188.432 135.627 188.432L141.765 187.658C141.956 187.619 142.126 187.514 142.241 187.362C142.357 187.211 142.409 187.024 142.389 186.837C142.368 186.651 142.277 186.479 142.131 186.353C141.986 186.228 141.797 186.158 141.601 186.158L135.903 186.587L143.661 182.722C143.75 182.678 143.83 182.617 143.895 182.543C143.959 182.469 144.009 182.384 144.039 182.292C144.069 182.201 144.081 182.104 144.072 182.008C144.063 181.912 144.035 181.819 143.988 181.733C143.906 181.591 143.777 181.478 143.622 181.413C143.466 181.347 143.292 181.332 143.126 181.371L134.817 183.431L141.877 179.731C142.083 179.622 142.236 179.438 142.302 179.221C142.367 179.004 142.34 178.771 142.226 178.573C142.111 178.375 141.92 178.229 141.692 178.167C141.465 178.104 141.221 178.13 141.015 178.239L132.912 182.112L136.929 178.816L138.273 177.209C138.352 177.093 138.388 176.954 138.375 176.816C138.362 176.678 138.302 176.547 138.203 176.445C138.104 176.343 137.973 176.276 137.83 176.253C137.686 176.23 137.539 176.254 137.411 176.32L135.808 177.457C132.886 179.574 125.886 184.667 125.231 185.499C124.369 186.554 120.206 191.119 120.206 191.119C120.206 191.119 113.077 196.565 103.569 202.926C99.1125 206.029 94.4187 208.809 89.5273 211.241C86.631 207.755 77.9248 197.06 74.494 190.509C71.9037 185.72 67.5994 181.979 62.3657 179.97" stroke="#263238" stroke-linecap="round" stroke-linejoin="round"/>
<path d="M143.092 181.354L134.782 183.414L141.842 179.714C142.049 179.605 142.202 179.422 142.267 179.205C142.333 178.988 142.306 178.754 142.191 178.557C142.077 178.359 141.885 178.213 141.658 178.15C141.431 178.087 141.187 178.114 140.98 178.223L132.877 182.096L136.894 178.8L138.239 177.193C138.318 177.076 138.353 176.938 138.341 176.799C138.328 176.661 138.267 176.531 138.169 176.429C138.07 176.327 137.939 176.259 137.795 176.236C137.652 176.214 137.505 176.237 137.377 176.303L135.774 177.44C132.851 179.558 125.852 184.65 125.197 185.482C124.335 186.537 120.171 191.102 120.171 191.102C120.171 191.102 113.043 196.549 103.535 202.91C99.8713 205.382 96.9061 207.178 94.6304 208.488L100.432 219.843C100.837 219.505 101.242 219.168 101.638 218.813C108.293 212.913 124.912 194.736 124.912 194.736C129.05 193.706 135.653 188.383 135.653 188.383L141.79 187.608C141.982 187.569 142.152 187.464 142.267 187.313C142.382 187.161 142.435 186.974 142.415 186.788C142.394 186.602 142.303 186.429 142.157 186.304C142.012 186.178 141.823 186.109 141.627 186.109L135.929 186.537L143.687 182.673C143.776 182.628 143.856 182.567 143.92 182.494C143.985 182.42 144.034 182.335 144.065 182.243C144.095 182.151 144.106 182.055 144.098 181.959C144.089 181.863 144.061 181.769 144.014 181.684C143.924 181.535 143.783 181.421 143.615 181.361C143.447 181.301 143.262 181.299 143.092 181.354Z" fill="white" stroke="#263238" stroke-linecap="round" stroke-linejoin="round"/>
<path d="M46.1773 150.174C46.1773 150.174 40.3588 151.047 37.2125 147.793C34.0662 144.538 38.9969 140.443 44.0396 132.046C49.0823 123.649 52.3493 115.723 62.1416 113.745C71.9339 111.767 83.6916 119.439 86.3293 121.491C88.967 123.542 89.0101 125.405 87.743 125.907C87.743 125.907 56.6506 137.723 46.4704 151.451" fill="#FFC100"/>
<path d="M46.1773 150.174C46.1773 150.174 40.3588 151.047 37.2125 147.793C34.0662 144.538 38.9969 140.443 44.0396 132.046C49.0823 123.649 52.3493 115.723 62.1416 113.745C71.9339 111.767 83.6916 119.439 86.3293 121.491C88.967 123.542 89.0101 125.405 87.743 125.907C87.743 125.907 56.6506 137.723 46.4704 151.451" stroke="#263238" stroke-linecap="round" stroke-linejoin="round"/>
<path d="M61.4002 137.649L45.8842 144.142" stroke="#263238" stroke-linecap="round" stroke-linejoin="round"/>
<path d="M46.1687 153.017C46.1687 153.017 59.478 141.843 72.1494 136.825C84.8208 131.807 89.648 131.337 89.648 129.673C89.648 128.008 87.7688 125.907 87.7688 125.907C87.7688 125.907 67.1757 133.323 59.0298 139.165C50.8839 145.008 41.376 149.449 46.1687 153.017Z" fill="#FFC100" stroke="#263238" stroke-linecap="round" stroke-linejoin="round"/>
<path d="M18.964 380.688H420.656" stroke="#263238" stroke-linecap="round" stroke-linejoin="round"/>
</svg>
