<svg width="29" height="29" viewBox="0 0 29 29" fill="none" xmlns="http://www.w3.org/2000/svg">
<g filter="url(#filter0_d_3_46)">
<path d="M14.5 0C15.8924 0 17.2277 0.553123 18.2123 1.53769C19.1969 2.52226 19.75 3.85761 19.75 5.25C19.75 6.64239 19.1969 7.97775 18.2123 8.96231C17.2277 9.94688 15.8924 10.5 14.5 10.5C13.1076 10.5 11.7723 9.94688 10.7877 8.96231C9.80312 7.97775 9.25 6.64239 9.25 5.25C9.25 3.85761 9.80312 2.52226 10.7877 1.53769C11.7723 0.553123 13.1076 0 14.5 0ZM14.5 13.125C20.3013 13.125 25 15.4744 25 18.375V21H4V18.375C4 15.4744 8.69875 13.125 14.5 13.125Z" fill="white"/>
</g>
<defs>
<filter id="filter0_d_3_46" x="0" y="0" width="29" height="29" filterUnits="userSpaceOnUse" color-interpolation-filters="sRGB">
<feFlood flood-opacity="0" result="BackgroundImageFix"/>
<feColorMatrix in="SourceAlpha" type="matrix" values="0 0 0 0 0 0 0 0 0 0 0 0 0 0 0 0 0 0 127 0" result="hardAlpha"/>
<feOffset dy="4"/>
<feGaussianBlur stdDeviation="2"/>
<feComposite in2="hardAlpha" operator="out"/>
<feColorMatrix type="matrix" values="0 0 0 0 0 0 0 0 0 0 0 0 0 0 0 0 0 0 0.25 0"/>
<feBlend mode="normal" in2="BackgroundImageFix" result="effect1_dropShadow_3_46"/>
<feBlend mode="normal" in="SourceGraphic" in2="effect1_dropShadow_3_46" result="shape"/>
</filter>
</defs>
</svg>
